/* XPM */
static char *d32c733a7c5b4d1192b62c55e3085be1Xdwea11zYDb6SBuD[] = {
/* columns rows colors chars-per-pixel */
"64 64 256 2 ",
"   c #191615",
".  c #0F0B0B",
"X  c #281B17",
"o  c #351C16",
"O  c #27140E",
"+  c #2D2B14",
"@  c #292514",
"#  c #332919",
"$  c #3C3B1B",
"%  c #373518",
"&  c #2E2F10",
"*  c #121627",
"=  c #221E23",
"-  c #392824",
";  c #3D3A23",
":  c #383439",
">  c #2D292E",
",  c #46261C",
"<  c #413E1C",
"1  c #552B1C",
"2  c #6A301D",
"3  c #492D23",
"4  c #572E23",
"5  c #473627",
"6  c #583328",
"7  c #593A34",
"8  c #463736",
"9  c #683726",
"0  c #743C28",
"q  c #653D33",
"w  c #69362E",
"e  c #3C441B",
"r  c #3E442F",
"t  c #44431A",
"y  c #49451A",
"u  c #4C4B1C",
"i  c #454518",
"p  c #4C521C",
"a  c #454421",
"s  c #4B4B24",
"d  c #484825",
"f  c #544A28",
"g  c #4C5523",
"h  c #545523",
"j  c #585A29",
"k  c #5B4636",
"l  c #595A35",
"z  c #4D4E39",
"x  c #7A422C",
"c  c #694437",
"v  c #794637",
"b  c #675A32",
"n  c #5C6429",
"m  c #5B6639",
"M  c #65662B",
"N  c #656837",
"B  c #6B7C3B",
"V  c #687637",
"C  c #737638",
"Z  c #707331",
"A  c #222A54",
"S  c #493D45",
"D  c #5A5659",
"F  c #50474B",
"G  c #76544A",
"H  c #6F524D",
"J  c #696845",
"K  c #756947",
"L  c #6B7845",
"P  c #747D43",
"I  c #777748",
"U  c #777953",
"Y  c #6E6D57",
"T  c #515571",
"R  c #756E68",
"E  c #62576E",
"W  c #823C25",
"Q  c #84462D",
"!  c #864B34",
"~  c #89553C",
"^  c #97553A",
"/  c #944D32",
"(  c #AA5A39",
")  c #86753C",
"_  c #AF643E",
"`  c #8A5847",
"'  c #985B45",
"]  c #8E564F",
"[  c #A65F44",
"{  c #877A4A",
"}  c #877A58",
"|  c #956C51",
" . c #A96748",
".. c #A86C56",
"X. c #B36D51",
"o. c #B97558",
"O. c #B26D4E",
"+. c #90746B",
"@. c #B1766B",
"#. c #C67957",
"$. c #C37D64",
"%. c #C2747E",
"&. c #6D8239",
"*. c #768739",
"=. c #788731",
"-. c #6E8442",
";. c #778647",
":. c #7C8756",
">. c #7D9245",
",. c #7C8A69",
"<. c #8A8F3A",
"1. c #858748",
"2. c #889347",
"3. c #969748",
"4. c #868957",
"5. c #948B5A",
"6. c #8A9559",
"7. c #969859",
"8. c #938747",
"9. c #BB8D59",
"0. c #A98F52",
"q. c #9AA25B",
"w. c #8A8A65",
"e. c #988965",
"r. c #8B9566",
"t. c #979967",
"y. c #8B9879",
"u. c #999A73",
"i. c #8B8374",
"p. c #A49A67",
"a. c #B89566",
"s. c #B08C72",
"d. c #9AA368",
"f. c #98A677",
"g. c #8FA674",
"h. c #A6A66A",
"j. c #A7A877",
"k. c #B3AC78",
"l. c #A8B478",
"z. c #B7B47B",
"x. c #B5A76F",
"c. c #B5A456",
"v. c #C58C5D",
"b. c #C9846A",
"n. c #D58A6C",
"m. c #C98A74",
"M. c #D48D75",
"N. c #DA9376",
"B. c #D3986A",
"V. c #E59473",
"C. c #CDB074",
"Z. c #E4B175",
"A. c #CAA85C",
"S. c #C4C47D",
"D. c #37498F",
"F. c #3F57B1",
"G. c #5B6A94",
"H. c #68759B",
"J. c #6C778F",
"K. c #5369AE",
"L. c #6878A6",
"P. c #667CB4",
"I. c #4459A7",
"U. c #5475C2",
"Y. c #2D3F83",
"T. c #C97A85",
"R. c #79859A",
"E. c #7B828D",
"W. c #7A88A7",
"Q. c #7389B9",
"!. c #7690C9",
"~. c #739BDF",
"^. c #8F918E",
"/. c #AF8F89",
"(. c #99AA84",
"). c #9AAF88",
"_. c #A8AB85",
"`. c #A9B688",
"'. c #B8BA86",
"]. c #B0B394",
"[. c #828EA5",
"{. c #8D9AAE",
"}. c #8794A9",
"|. c #939AAC",
" X c #8B9AB6",
".X c #929EB2",
"XX c #919CB9",
"oX c #838FB3",
"OX c #95A1B5",
"+X c #95A3BA",
"@X c #9AA5BC",
"#X c #9DA9BE",
"$X c #99A2B7",
"%X c #99A3AC",
"&X c #A9AEB4",
"*X c #A69DA9",
"=X c #DB9884",
"-X c #C9948A",
";X c #E49B88",
":X c #CEAD8E",
">X c #EBA58C",
",X c #EAA995",
"<X c #F3AB97",
"1X c #F5B29B",
"2X c #EEB18A",
"3X c #D3B1AD",
"4X c #F7BAA6",
"5X c #EFB4A9",
"6X c #B5C493",
"7X c #B8C4AB",
"8X c #C4C388",
"9X c #CBCB97",
"0X c #F1C391",
"qX c #C6CDBB",
"wX c #F9C4B3",
"eX c #849AC7",
"rX c #869FD2",
"tX c #8AA3CA",
"yX c #9DABC3",
"uX c #9AABC9",
"iX c #88A5D9",
"pX c #9CB3D5",
"aX c #96ACD2",
"sX c #A1ADC3",
"dX c #A3ADC8",
"fX c #A4B3CC",
"gX c #A8B4CA",
"hX c #ABBAD3",
"jX c #A9BAD7",
"kX c #B1BDD4",
"lX c #99B9E7",
"zX c #89ACE7",
"xX c #A2BEE3",
"cX c #B4C4DC",
"vX c #B9C6DB",
"bX c #B6C4D0",
"nX c #9DC2EB",
"mX c #A9C9EB",
"MX c #BDCBE2",
"NX c #B3C9E6",
"BX c #B5D8F1",
"VX c #BEE1F4",
"CX c #CAD2D3",
"ZX c #F8D4CB",
"AX c #FAE2DB",
"SX c #C1CEE5",
"DX c #C6D3EA",
"FX c #D3DDF4",
"GX c #CDDAEF",
"HX c #DBE3EC",
"JX c #DBE4F7",
"KX c #C6E4F2",
"LX c #E3EAFA",
"PX c #E9F2FC",
"IX c #F4EFEF",
"UX c #D4E2DC",
/* pixels */
"j h u e e t i u h h j j M M M C { 0.0.a.a.a.a.a.a.a.a.a.a.a.a.9.9.9.9.v.B.Z.2X0X0X0X0X0X:XC.a.7.7.7.7.d.d.7.6.>.*.*.1.1.*.&.B V ",
"h u i $ $ i u u h h j M M M M Z ) { 0.0.9.a.a.a.a.a.a.a.a.a.9.9.9.9.9.v.B.Z.2X0X0X0X0X2XC.C.c.7.6.6.2.6.7.7.2.*.*.*.*.*.B V V V ",
"u y i < i y u y u u h j M M M M Z ) | 0.0.0.9.9.9.9.e.} R D D D Y } ..9.B.B.Z.Z.Z.Z.Z.C.A.c.3.2.2.2.2.2.2.2.*.=.=.*.;.;.B B V V ",
"i i i i y u u y y u h j M M j j M C ) | 0.0.0.0.e.Y D D F S S S F D D D e.v.A.A.A.A.A.c.c.3.2.*.*.>.>.>.*.*.=.&.B *.;.;.P L V V ",
"i i i y u h u y y y u h n n j j j M ) ) | 0.} R D F : : : : : : : S S F D R 0.0.3.<.<.<.3.2.<.*.*.*.*.*.*.&.V Z Z C ;.;.P P ;.;.",
"h u y u u u y i y y u h j j j j M M C ) { } D S : : : > > : 8 F F F F F D D R 1.<.<.=.<.<.2.2.*.&.&.*.*.*.&.V V V V C P P ;.;.;.",
"P V j h g y < < y y p h j j j n M N Z C D F : > > > > 8 F G @.-X3X3X3X3X*X+.D R P =.=.*.*.>.>.*.&.&.*.*.B &.V V V V V P ;.:.:.:.",
"6.;.N n h y i y y u h h h h j M M Z C J : > > = > 8 ` s.;X,X5X4XZXAXAXIXIXIX^.D R *.=.*.*.*.&.B B B B &.V B B B B V V L ;.;.:.:.",
"g.6.:.L N j f h h h j h p h n M Z C N : > = X X x  .b.=X,X,X,X<X4XZXAXAXAXIXIX&XD U *.Z V V V V V V V V B V B B B B &.-.;.;.>.>.",
"f.g.r.:.L N N M M n h u u u n M C C : =   = - v  . .o.n.;X,X<X,X4X4XwXZXZXZXAXAX+.R C Z V V V V V V V V V V B -.-.-.-.;.;.;.;.;.",
"f.g.r.,.:.U I C Z M h u i u n Z C C =     @ G ^ (  . .$.M.N.;X>X<X1X4XwXwXwXwXAXZXR P Z V V B P C C V V V V P -.-.;.&.-.-.-.&.B ",
"f.g.r.r.:.:.:.;.Z M j p u p n Z C N       X v ^ ^ [ O.o.$.b.M.=X>X1X1X1X1X<X1XwXAX+.U &.B -.:.4.;.B N n n n V V L -.-.-.-.-.V V ",
"l.l.d.r.4.4.:.;.C V M n n M M Z Z M .     X 0 ^ ^ [ O.o.$.b.b.M.=X,X,X>X>X<X<X1XZX:XU *.-.;.:.4.;.V j u u g j N L V B L L L V B ",
"l.h.d.7.4.4.:.;.&.C V Z C C C =.=.M .     X 9 / ^ ( O.o.b.b.m.b.b.M.;X;X>X<X<X>X4X3XY -.;.:.4.4.I N g t e d g l N V V B -.-.P B ",
"h.q.q.7.7.6.4.;.-.;.;.*.<.<.<.=.=.M .     X 0 / '  .X.o.b.M.=Xn.o.#.n.n.>X1X4X4X4X5XG I P P P I N f s t s f l m N L L B L P B B ",
"h.q.3.7.7.7.1.;.;.>.2.2.2.2.<.*.*.&.    O , ! ! [ X.s.m.M.M.M.b.o.#.#.b.n.m.-X/.-X5X+.U I I N l s a d d s s f l N N V V B B V V ",
"l.d.7.7.7.q.3.<.1.2.7.7.7.7.7.q.d.d.  O o 0 ! ! ~ c k H c G ..X.O._ _ O.^ w 4 7 | -Xs.I L J N j d d d s s s d s l m V V V V M n ",
").(.f.d.7.q.3.<.2.6.q.d.d.d.d.d.f.u.  X , x Q ! q c q 4 3 4 0 ! ^ ( ( / 0 0 ! ..o.o.:XI N l l g a t d d d d < $ s l N N n n n n ",
").).).f.7.3.<.<.3.d.j.j.d.7.6.6.t.r.@ # 2 Q ! v x ! ' ' x 2 2 2 W [ ( W 2 9 0 ` ..o.:X:Xs.l j g s t a s s d % $ s j m n h g g g ",
"(.(.f.g.6.<.<.3.q.d.d.t.6.1.1.4.5.s., 1 0 Q Q x 9 0 x v 4 , 1 2 W o.O.0 1 , o , c ! :X,X_ l s s s s s s s d $ < s j m n p p e e ",
"g.g.g.g.6.2.<.<.3.3.2.2.1.;.P I Q Q ` 1 x Q Q 0 1 o #   8 6 9 !  .n.V.O.! v c G @.s.=XM.( | t a s s s s d t < $ s j j g i e % e ",
"g.g.g.g.r.2.<.=.2.3.2.1.;.I P C 2 Q ~ 9 0 x 0 Q 0 9 c c v ` ^ ( #.V.1XV.X.! 4 4 v m.>Xb._ ^ t d d d d t t $ $ % t s s u t % % % ",
"g.(.).).d.7.2.<.2.7.7.1.P P C ) W ! 2 0 9 x x ^ [ ' ! !  .$.o._ #.>X4X1XV.V.n.M.<XwX2XO.#.v a < $ $ $ % % & # # % t s s $ % & & ",
"(.(.).(.f.d.7.7.d.d.h.7.4.P V b Q 2 2 2 9 0 Q ^ o.b.n.M.N.N.#.X.n.<XwXwX>Xn.>X,X,X<X2X#.b.b < $ % % + + + @ @ + # $ < $ % & & & ",
"g.g.f.f.h.h.h.l.`.`.'.z.f.w.L b ^ 0 ! ! 2 9 Q ^ O.$.n.b.$.[ O.V.n.V.<X4X4X>X/ $.N.V.V.V.$.K a $ % + + @ @ @ @ @ + % $ % % % & % ",
"r.f.f.d.h.h.l.`.`.6X6X8Xj.r.I N ' ^ ^ ! 9 9 x /  .X.o.O.^ Q ^  .^ ^ [ X.[ X.^ Q  .#.#.>X;X} J < % % & + @ @ @ @ + % $ % % $ $ $ ",
"r.u.d.d.d.h.l.'.`.`.'.8Xk.w.L J ^  .X.x 9 9 0 ! / ^ ^ ! 0 0 0 o O , 4 6 v @.[ Q 0 / _ n.e.K } K < $ % + @ @ @ + + # % % $ e e e ",
"r.t.d.h.h.h.l.z.'.'.'.'.'.4.N N K O.O.! 9 9 9 0 x 0 0 2 0 ` ` 3 X   O - G s.@.' 9 0 ^ #.f d U } K d 5 % + + + + # # % $ $ e e e ",
"7.t.t.t.7.7.d.d.h.h.'.'.'.p.I J :.|  .^ 9 9 9 9 9 4 4 0 v 3 3 7 H c H G +.| c |  ./ _ ~ d ; d U w.J 5 ; % # + + + # % % % e e e ",
"4.4.4.r.t.7.7.7.7.7.h.k.'.z.h.4.4.6.1.{ f 4 9 0 0 0 0 ~ - o 7 6 w w w w 6 6 6 7 O.(  .b d ; ; z } } f % % % % ; 5 ; $ $ $ e e e ",
"4.t.j.j.u.5.1.1.1.8.7.h.z.8X:Xz.x.h.d.d.I 1 4 0 0 0 x v X O 5 G +./.i./.+.- 5 7 O.( _ f ; ; ; % f } } b k f f k K U K I U I V m ",
"u.j.`.(.y.U N N C C C 4.j.:X8X8X8XS.z.l.t.6 4 9 0 0 0 v # 7 7 H H R G +.+.@.| k [ ^ ~ $ $ % % 5 J e.u.} c f 5 l R y.(.f.j.f.d.g.",
"w.u.(.(.y.w.4.{ I N l J r.l.:X8X8X8X8X8X`.k 1 4 9 0 9 c 3 ] ] @.-X%.T.,X5X-X@.c ' / f + % 5 J } } } w.} b % + r Y y.).`.`.`.`.`.",
":.r.j.f.u.u.u.u.5.{ K U r.r.f.k.'.8X8X9X9X} , 1 6 9 9 c q | ` ] ..@.@.@...b.m.` ` ~ + + z K } } U k 5 K 4.J l l ,.f.f.j.j.l.`.6X",
"5.h.k.z.k.j.j.j.j.p.t.r.w.4.4.6.j.'.'.6X9X'., 3 3 6 6 w 3 ] ' v 3 o o o ` b.s.G ` } K } e.e.} b ; a l 4.j.j.u.u.(._.j.j.h.7.d.'.",
"5.p.k.k.p.e.5.t.t.u.u.j.u.4.P ;.t.l.'.8X8X9X3 3 3 3 6 6 - ` ..' ! 4 6 ` o.M.s.G | (._._.j.e.I K K 4.u.j.'.'.'.].`.`._.`.l.t.6.d.",
"L I t.t.5.1.{ { I I U 5.t.t.4.1.4.t.'.9X9X&X3 3 3 3 3 6 o 7 @.@.@.@.@.=X,X/.| H s.].]._.e.{ I { 5.u._.`.'.6X6X6X6X6X6X7X6X_.g.t.",
"4.:.r.t.e.5.} } } K b C 5.p.j.(.).&X7XqXqX X6 6 - 3 3 3 - - 7 G | ..@.s.@.+.G G /.'.'.j.5.{ J J :.f.'.'.'.'.8X6X`.6X7X7X6X`.l.f.",
"h.:.4.5.5.5.e.e.e.e.5.{ C ^.CXUXDXCXbXbXOX!.H.7 6 # - 3 - - 3 5 7 q q 6 k k 7 @.:Xk.p.e.{ I K U t.u.j.h.h.p.x.z.6X6X6X`.l.l.6Xl.",
"C.7.4.5.5.5.} 5.e.e.5.w.i.&XGXPXLXUXHX&XH.Q.iXH.6 6 o # - X X X X - o - X X G -X+.|.r.4.I U } w.p.j.j.t.t.t.t.j.'.`.f.7.2.6.l.6X",
"C.h.6.4.4.{ { { b k k H i.bXLXPXPXUXCXE.G.P.Q.iXQ.S 6 , X X X       O   o G s.=XH F CXy.r.w.e.w.r.t.t.t.r.t.t.h.h.t.4.1.1.4.r.l.",
"C.k.u.r.4.I b c 6 8 8 8 D &XHXPXHXbX.XJ.J.G.Q.Q.tXQ.S 4 , o X O O O O # v | m.;XH 8 kX7X_.k.j.f.r.,.:.4.w.u.t.t.5.1.;.4.r.r.:.f.",
"C.z.r.U l d 5 - : F D D R |.vXGX#XR.R.J.J.J.Q.W.W.tX!.D 4 , o o o o 1 v | @.m.=XF > CXUXz.'.'.`.f.r.U m U t.t.4.I I L :.r.r.:.w.",
"k.k.w.L z z F z F D R ^.%XbXMXkXOXR.W.R.R.R.G.H.W.oXaXiXE 3 , , , , 9 ~ ..o.m.;XH = SXIXk.j.`.`.f.f.y.U m U w.4.I I L J :.:.U L ",
"p.k.r.Y R ,.y.^.%XkXDXMXcXcXgXyX+X{.[.W.R.R.R.L.oXW. XxXlXW.7 4 1 4 9 ~ O.$.M.N.G = PXPXu.r.f.g.f.(.(.y.L m U 4.4.U L m J L J l ",
"5.k.].).&XbXMXSXMXvXvXcXhXhXyXyX+X X{.[.[.W.R.R.oXoX XtXmXnXXXG v ! ^ ..$.n.N.M.` D HXPXUXy.f.g.f.`.].).,.L U 5.5.e.4.:.U U J z ",
"&XbXSXDXDXSXMXMXMXMXcXhXhXyXyX+X+XOX X{.}.W.W.W.W. XeXtXaXQ.Y.!... .O.#.b.N.N.$.] aX* R.LXUXy.g.g.(.`.(.y.,.,.6.t.h.j.j.j.t.U m ",
"MXMXMXMXMXvXvXvXMXvXcXhXfXfXyXyX@X+XOX X}.W.R.[.oXtXtXtXL.A F.~.pXs.b.b.n.N.b. .|.!.* . gXJXCX].f._.`.`._.(.y.r.d.j.'.:Xz.h.4.I ",
"vXcXcXvXMXMXcXcXcXcXkXhXfXuXuXyXyXyX+XXX}.}.W.W. XtXtXQ.D.U.iXmX~.dXN.N.N.n.o.` cXiX* . T MXPXPXHXqX'._._._.j.u.t.h.'.8X:Xx.t.4.",
"hXhXhXhXvXcXkXfX+XuXhXfXfXdXuXyXyXyX+XXX}.{.[.[. XeXtXD.K.!.iXxX~.eXN.N.n.o.' G mXzXA . A uXFXPXPXPXHXqX_.j.f.f.t.h.k.C.z.h.r.r.",
"fXyXfXfXhXhXhXuX}.@XyXXXOXyXyXuXuX+X+X+X{.{.}.[.{.iXU.lXeXP.~.~.~.iXm.n.o.[ ! H NXtXD.. * hXGXJXPXPXPXLXLXCXr.6.7.t.h.x.x.p.6.r.",
"@X+XyXyXfXfXfXuX}.+XyXyXyXyX+X+X+X@X+X+XXX{.}.}.{.Q.~.~.lXpXpXpXeXoXb.b.o.[ v 6 ^.vXrXA * yXNXFXJXPXPXPXLXLXHX7Xr.t.t.p.p.7.5.5.",
"@X+XyXyXdXfXfXuXXX.XyXyXyX@XyXyX+X+X+X+XOX.X{.}.{.uXlXnXiXuXuXyXyXsXb.b.o.[ v 6 - K.MXG.A H.eXGXFXJXLXLXLXJXJXLXLXCXu.5.5.0.0.8.",
"OXOX+X@X@XyXyXfXfX}.#XsXyX+XyXyXyX@X@X+X+XXX{.}.{.yXzXmXlXW.W.[.W.oXm.m.$...~ w S D.I.fXD.A Q.DXFXFXJXLXJXJXLXJXJXLXHX].t.p.0.8.",
"{.OX+X#X@XyXyXfXfXXXOX#X#X#XyXdXyXyX+X@X$X$X.X}..X@X!.!.iXW.H.W.W.W.:XN.m.@...` G.F.F.K.fX!.D.jXFXFXGXFXJXJXJXJXFXJXJXLXHX].p.0.",
"{..XOX+X@XyXyXuXyXyX}.#XsX#XyXyX@XyXyX@X$X@X$X{..X@XeXK.K.L.H.H.H.H.*X;XN.M.b...!.P.K.G.uXdXH.XXGXGXGXDXDXHXFXFXGXGXDXDXFXLXCXp.",
"{..X$X@X#XyX@XuXuX@X[..X@XdXdXyXyXyXyXdX@X#X$XOX{..XuXiX!.!.H.G.H.H.[.,X;X=XM./.pXoXW.W.fXvXW.L.DXGXGXDXDXDXGXvXkXSXDXMXDXGXJXHX",
"}.{.OX#X#X#X+XyXyX#X{.[.+XyXyXyXdXdXdXyXyX+X#X$X{..XdXpXiXiXL.L.NXXXH.3X>X;X=X/.$X#XdX+XcXbXXXG.vXDXDXSXSXDXhXcXDXDXGXSXvXMXDXDX",
"}..X.X+X#X#X$XsXsXyXOXR.{.sXdXsXdXsXdXyX#X@XOX+X.X{.#XjXmXlXtXL.eXP.P.XX,X>X=X/.@XvXkXDXbXgX XT jXSXDXSXMXMXMXMXvXMXGXGXhXhXcXkX",
"}..X.X#X#X#X+XyXsX@XXX[.[.#XdXyX#X#XdXyX+X+XOXOXOX.X+XhXBXmXlXeXQ.P.P.P.5X,X=X|.gXgXDXKXSXhXXXT uXMXSXSXMXSXSXMXvXcXSXDXhXhXhXgX",
"R.}..X$X#X@X#XsXyX#X+XXXJ..XsXsXyXdXsXsX+X@X+XOXOXOX.XyXnXVXmXaX!.!.Q.P.&X,X-X.XfXcXBXVXKXMXjXL. XvXSXSXvXMXSXSXMXcXbXMXfXfXgXfX",
"R.[.}.OX#X@X+X#X#X+X.XXX[.[.sXsXyXyX@XyXsX#X+X+XOX.X{.#XzXnXKXcXpXeX!.!. X3X/.#XgXNXmXVXKXMXjXQ.W.kXSXSXMXvXMXSXMXgXhXMXfXfXdXsX",
"J.R.}.OX#X$X@X$X#X+X$X@XXXJ.{.sXsXyXsXsXyX#X$X$X.X{.OXsXjXlXnXKXcXjXaXeXQ.3X/.sXNXlXBXKXKXMXcXtXH.hXvXvXvXMXvXMXhX#XvXMXfXfXfX#X",
"J.R.[.{.#X#X@X#X#X$XOXOX.X[.[.+XsXdXyX#XsX@X+X$XOX.X{.OXhXNXlXmXKXvXkXpXeXsX*XhXlXmXBXKXKXMXMXaXL.fXcXvXMXvXvXvXgXvXMXMXfXfXgXsX"
};
