/* XPM */
static char *_91cc56c594f47b2873203ad51012996ZvdzLTwieZeFIaoI[] = {
/* columns rows colors chars-per-pixel */
"64 64 209 2 ",
"   c #0B0B16",
".  c #0B0E19",
"X  c #02CEC9",
"o  c #0B0F1A",
"O  c #00F7EF",
"+  c #0B101A",
"@  c #5CE8E5",
"#  c #64ECE8",
"$  c #6A072C",
"%  c #410923",
"&  c #ECF2F2",
"*  c white",
"=  c #F55285",
"-  c #FF004F",
";  c #AB043C",
":  c #ECF2F3",
">  c #F69DB9",
",  c #C40341",
"<  c #FE004F",
"1  c #0B101B",
"2  c #EDF2F3",
"3  c #F44C80",
"4  c #4B0825",
"5  c #F7DFE7",
"6  c #FD004F",
"7  c #340920",
"8  c #F4BACD",
"9  c #FB0B55",
"0  c #0B111B",
"q  c #AB3B61",
"w  c #70C8C8",
"e  c #0B0C17",
"r  c #96F0ED",
"t  c #01E9E2",
"y  c #075C60",
"u  c #26F0EA",
"i  c #01DED8",
"p  c #049D9D",
"a  c #076B6E",
"s  c #E3F7F7",
"d  c #0BF2EB",
"f  c #03C5C1",
"g  c #EEF3F3",
"h  c #AAC1C9",
"j  c #560828",
"k  c #390921",
"l  c #1B0A1A",
"z  c #F7C9D8",
"x  c #E30249",
"c  c #0B111C",
"v  c #F6D2DD",
"b  c #F62667",
"n  c #08474D",
"m  c #03BEBA",
"M  c #04A2A1",
"N  c #E40149",
"B  c #F43571",
"V  c #F4AAC2",
"C  c #0B0F19",
"Z  c #02CDC8",
"A  c #0B121C",
"S  c #950537",
"D  c #130B18",
"F  c #870533",
"G  c #F62364",
"H  c #F5B2C7",
"J  c #0A2B33",
"K  c #10F0E9",
"L  c #7EF2EF",
"P  c #CCF5F4",
"I  c #F9FAFA",
"U  c #F0A3BC",
"Y  c #DF0148",
"T  c #9D0539",
"R  c #01EDE6",
"E  c #7AF0EC",
"W  c #FCFDFD",
"Q  c #EFF3F3",
"!  c #7D0631",
"~  c #0A1C25",
"^  c #03F5ED",
"/  c #DCF6F5",
"(  c #61072A",
")  c #C50342",
"_  c #0A1F28",
"`  c #95F0ED",
"'  c #0B121D",
"]  c #EFF3F4",
"[  c #0B0D18",
"{  c #4EEFEA",
"}  c #F1FAFA",
"|  c #00F4EC",
" . c #6DEEEA",
".. c #067D7E",
"X. c #44EFEA",
"o. c #04F5ED",
"O. c #F5D1DD",
"+. c #F7477E",
"@. c #F70A54",
"#. c #F50F57",
"$. c #F4618F",
"%. c #EF608D",
"&. c #0B131D",
"*. c #06787A",
"=. c #F8FBFB",
"-. c #F8E1E9",
";. c #3EEEE9",
":. c #F4B8CB",
">. c #F4014D",
",. c #960537",
"<. c #800631",
"1. c #820632",
"2. c #CC0243",
"3. c #F0F4F4",
"4. c #FBF8F9",
"5. c #C30341",
"6. c #F0F3F4",
"7. c #0B1923",
"8. c #F483A6",
"9. c #FC004E",
"0. c #0C0B16",
"q. c #067476",
"w. c #4BEEEA",
"e. c #03B1AF",
"r. c #DAF3F3",
"t. c #F8F4F6",
"y. c #110B17",
"u. c #02D1CC",
"i. c #F2ACC3",
"p. c #D70246",
"a. c #0B131E",
"s. c #02D2CD",
"d. c #F0A4BD",
"f. c #360920",
"g. c #0A1923",
"h. c #03B8B5",
"j. c #F3E3E9",
"k. c #085459",
"l. c #068082",
"z. c #F1F4F5",
"x. c #930536",
"c. c #0A2932",
"v. c #F45385",
"b. c #F5BDCF",
"n. c #7E0631",
"m. c #69072C",
"M. c #01DDD7",
"N. c #F43D76",
"B. c #F26B96",
"V. c #C00340",
"C. c #0B141E",
"Z. c #09F3EB",
"A. c #FC0451",
"S. c #260A1D",
"D. c #049C9B",
"F. c #E9F5F4",
"G. c #F396B3",
"H. c #09333B",
"J. c #E2F7F7",
"K. c #5FF2ED",
"L. c #F4FBFB",
"P. c #084249",
"I. c #01E9E3",
"U. c #54EEEA",
"Y. c #F45A8A",
"T. c #03AFAC",
"R. c #E8F9F8",
"E. c #5EEEEA",
"W. c #D8F5F4",
"Q. c #71F0ED",
"!. c #1DF1EA",
"~. c #F0F9F9",
"^. c #F72163",
"/. c #0A242D",
"(. c #F3A1BB",
"). c #A9043B",
"_. c #07575C",
"`. c #A6F0EE",
"'. c #F7D3DF",
"]. c #07585D",
"[. c #FDFDFD",
"{. c #F9155C",
"}. c #2B0A1E",
"|. c gray99",
" X c #FD0250",
".X c #0E0B17",
"XX c #F3B0C6",
"oX c #F47BA1",
"OX c #790630",
"+X c #F48FAF",
"@X c #FB004E",
"#X c #D30245",
"$X c #FA0A54",
"%X c #F6A0BB",
"&X c #F4CFDB",
"*X c #F43671",
"=X c #B8033F",
"-X c #290A1D",
";X c #FC004F",
":X c #8D0535",
">X c #1A0A1A",
",X c #C10341",
"<X c #F5014D",
"1X c #5B0829",
"2X c #1C0A1A",
"3X c #480824",
"4X c #510827",
"5X c #500826",
"6X c #31091F",
/* pixels */
"                                                                                                                                ",
"                                                                                                                                ",
"                                                                                                                                ",
"                                                                                                                                ",
"                                                                . X X X X X X X X X                                             ",
"                                                                o O O O O O O O O O                                             ",
"                                                                + O O @ # # # # # # $ $ %                                       ",
"                                                                + O O & * * * * * * = - ;                                       ",
"                                                                + O O : * * * * * * > - ,                                       ",
"                                                                + O O & * * * * * * * - <                                       ",
"                                                                1 O O 2 * * * * * * * 3 -                                       ",
"                                                                1 O O 2 * * * * * * * * - 4                                     ",
"                                                                1 O O 2 * * * * * * * * 5 6 7                                   ",
"                                                                1 O O 2 * * * * * * * * * 8 9                                   ",
"                                                                0 O O 2 * * * * * * * * * * * q                                 ",
"                                                                0 O O 2 * * * * * * * * * * * * w e                             ",
"                                                                0 O O 2 * * * * * * * * * * * * * r t y                         ",
"                                                                0 O O 2 * * * * * * * * * * * * * * u O i p a                   ",
"                                                                0 O O 2 * * * * * * * * * * * * * * * s d O f                   ",
"                                                                0 O O g * * * * * * * * * * * * * * * * * * h j k l             ",
"                                                                0 O O g * * * * * * * * * * * * * * * * * * z - - x             ",
"                                                                c O O g * * * * * * * * * * * * * * * * * * z - - x             ",
"                                                                c O O g * * * * * * v * * * * * * * * * * * z - - x             ",
"                                                                c O O g * * * * * * - b * * * * * * * * * * z - - x             ",
"                                        n m O O O O O M         c O O g * * * * * * - - N B V * * * * * * * z - - x             ",
"                                  C Z O O O O O O O O M         A O O g * * * * * * - - S D F - G H * * * * z - - x             ",
"                              J O O O O O O O K L P I U - Y     A O O g * * * * * * - - S       T - - - - - - - - x             ",
"                              R O O O O O O E W * * * U - -     A O O Q * * * * * * - - S         ! - - - - - - - x             ",
"                          ~ O O O O O ^ / * * * * * * U - -     A O O Q * * * * * * - - S               ( ) - - - x             ",
"                        _ O O O O O ` * * * * * * * * U - -     ' O O ] * * * * * * - - S                                       ",
"                      [ O O O O { } * * * * * * * * * U - -     ' O O ] * * * * * * - - S                                       ",
"                      | O O O  .* * * * * * * * * * * U - -     ' O O ] * * * * * * - - S                                       ",
"                    ..O O O X.* * * * * * * * * * * * U - -     ' O O ] * * * * * * - - S                                       ",
"                    O O O o.* * * * * * * * O.+.@.#.$.%.- -     &.O O ] * * * * * * - - S                                       ",
"                  *.O O O =.* * * * * * -.- - - - - - - - -     &.O O ] * * * * * * - - S                                       ",
"                  O O O ;.* * * * * * :.- - - - - >.,.<.1.2.    &.O O 3.* * * * * * - - S                                       ",
"                  O O O * * * * * * 4.- - - - 5.                &.O O 6.* * * * * * - - S                                       ",
"                7.O O O * * * * * * 8.- - - 9.0.                &.O O 6.* * * * * * - - S                                       ",
"                q.O O w.* * * * * * - - - <                     &.O O 3.* * * * * * - - S                                       ",
"                e.O O r.* * * * * t.- - - y.                    &.O O 3.* * * * * * - - S                                       ",
"                u.O O * * * * * * i.- - p.                      a.O O 3.* * * * * * - - S                                       ",
"                s.O O * * * * * * d.- - f.                      g.O O 3.* * * * * * - - S                                       ",
"                h.O O * * * * * * j.- -                         k.O O 3.* * * * * * - - S                                       ",
"                l.O O * * * * * * * - -                         s.O O z.* * * * * * - - x.                                      ",
"                c.O O * * * * * * * v.-                         O O O * * * * * * b.- - n.                                      ",
"                  O O * * * * * * * * - m.                    M.O O O * * * * * * N.- - 4                                       ",
"                  O O * * * * * * * * B.V.                  C.O O O Z.* * * * * * A.- - S.                                      ",
"                  D.O F.* * * * * * * * G.                H.O O O O J.* * * * * * - - -                                         ",
"                    O K.* * * * * * * * * L.q.      + P.I.O O O O U.* * * * * * Y.- - -                                         ",
"                    T.O * * * * * * * * * * R.O O O O O O O O O E.* * * * * * * - - - 1.                                        ",
"                      O W.* * * * * * * * * * * Q.O O O O O !.~.* * * * * * * ^.- - -                                           ",
"                      /.^ * * * * * * * * * * * * * * * * * * * * * * * * * (.- - - ).                                          ",
"                        _.`.* * * * * * * * * * * * * * * * * * * * * * * '.- - - -                                             ",
"                          ].[.* * * * * * * * * * * * * * * * * * * * * {.- - - - }.                                            ",
"                            /.* * * * * * * * * * * * * * * * * * * |. X- - - - m.                                              ",
"                              .XXX* * * * * * * * * * * * * * * * oX- - - - - OX                                                ",
"                                x.N.* * * * * * * * * * * * * * +X- - - - - @X                                                  ",
"                                    #X$X%X* * * * * * * * &X*X- - - - - - =X                                                    ",
"                                      -X;X- - - - - - - - - - - - - - :X                                                        ",
"                                          >X,X- - - - - - - - - <X1X                                                            ",
"                                                  2X3X4X5X6X                                                                    ",
"                                                                                                                                ",
"                                                                                                                                ",
"                                                                                                                                "
};
