/* XPM */
static char *c226e8f22f124909c49c320dc70b1f3eoe02LuHWMB5rMO4o[] = {
/* columns rows colors chars-per-pixel */
"64 64 194 2 ",
"   c #DE3E7F",
".  c #E33F7E",
"X  c #F35E5E",
"o  c #F96F4F",
"O  c #FD7C44",
"+  c #FA734C",
"@  c #FB7948",
"#  c #FC7747",
"$  c #F66757",
"%  c #F66A55",
"&  c #F86D52",
"*  c #F4635B",
"=  c #F56858",
"-  c #F97251",
";  c #F77A5A",
":  c #ED4E6E",
">  c #EF5667",
",  c #EF5966",
"<  c #EE526B",
"1  c #F05766",
"2  c #F15B63",
"3  c #F0546A",
"4  c #F0596D",
"5  c #EA4676",
"6  c #EB4A72",
"7  c #E6407C",
"8  c #E9427A",
"9  c #ED4F78",
"0  c #EE5877",
"q  c #F16B74",
"w  c #F16D7D",
"e  c #F56E69",
"r  c #FF843E",
"t  c #FF8B3E",
"y  c #FF933F",
"u  c #FF9C3F",
"i  c #FEA43F",
"p  c #FDAB3F",
"a  c #FCB23F",
"s  c #FCBB3F",
"d  c #FCC33F",
"f  c #FBD83F",
"g  c #FF8140",
"h  c #FC804D",
"j  c #FE9540",
"k  c #FF9B40",
"l  c #FC8355",
"z  c #FEA440",
"x  c #FEAC40",
"c  c #FCB440",
"v  c #FCBB40",
"b  c #FB906E",
"n  c #FA967C",
"m  c #FCC440",
"M  c #FBCC41",
"N  c #FBD341",
"B  c #FBDC41",
"V  c #FBE342",
"C  c #FAE941",
"Z  c #7F35B7",
"A  c #7434BD",
"S  c #7B35B9",
"D  c #5531CF",
"F  c #5B32CB",
"G  c #4F30D1",
"H  c #5331D0",
"J  c #6532C6",
"K  c #6C33C2",
"L  c #6032C8",
"P  c #7033C0",
"I  c #A73A9F",
"U  c #AC3A9D",
"Y  c #B73B97",
"T  c #BC3B95",
"R  c #B33A9A",
"E  c #B83B98",
"W  c #8D36AE",
"Q  c #9E38A5",
"!  c #9D38A6",
"~  c #9137AC",
"^  c #9337AB",
"/  c #9937A9",
"(  c #9638AA",
")  c #9638AA",
"_  c #9A38A8",
"`  c #9938A9",
"'  c #9B37A7",
"]  c #8135B5",
"[  c #8436B4",
"{  c #8936B1",
"}  c #8A36B1",
"|  c #A239A3",
" . c #A639A1",
".. c #A339A2",
"X. c #A83AA0",
"o. c #C53C8F",
"O. c #C63C8E",
"+. c #CD3D8A",
"@. c #C93D8D",
"#. c #CB3D8B",
"$. c #D43E86",
"%. c #DB3E82",
"&. c #D13D88",
"*. c #C13C92",
"=. c #C23C90",
"-. c #C43C90",
";. c #C23C91",
":. c #C93C90",
">. c #E13F80",
",. c #D8448B",
"<. c #C84494",
"1. c #CC5099",
"2. c #D85495",
"3. c #E64985",
"4. c #EC5A83",
"5. c #EB5A89",
"6. c #DB669E",
"7. c #EE6484",
"8. c #EF6880",
"9. c #F06F82",
"0. c #F1768C",
"q. c #E76597",
"w. c #EE7299",
"e. c #F17A94",
"r. c #DB74A9",
"t. c #D563A2",
"y. c #E876A5",
"u. c #F68A86",
"i. c #F38B9A",
"p. c #F69F9F",
"a. c #F5969D",
"s. c #FBA588",
"d. c #F7A19D",
"f. c #F9A59A",
"g. c #FAAB9C",
"h. c #FAAC97",
"j. c #FCB192",
"k. c #DC85B7",
"l. c #EC80AA",
"z. c #F08DAD",
"x. c #F084A7",
"c. c #F493A5",
"v. c #F59CA2",
"b. c #F192AD",
"n. c #ED8DB1",
"m. c #E48FB9",
"M. c #E487B4",
"N. c #EE91B5",
"B. c #E690B9",
"V. c #E990B9",
"C. c #F091B2",
"Z. c #F39EB4",
"A. c #F7A2A3",
"S. c #F8A7A0",
"D. c #F6A5AD",
"F. c #FCBCAB",
"G. c #F7ACB2",
"H. c #F6ABBB",
"J. c #F4A3BB",
"K. c #F7B4B8",
"L. c #FAC2BC",
"P. c #FCCCBB",
"I. c #E59FC4",
"U. c #EBA4C5",
"Y. c #F3AAC1",
"T. c #EEB5CD",
"R. c #F7BDC2",
"E. c #F9BFC0",
"W. c #F2B4CA",
"Q. c #F4BACD",
"!. c #EDBAD2",
"~. c #E9B5D2",
"^. c #F1BBD2",
"/. c #F7C2C6",
"(. c #F9C6C5",
"). c #FACBC1",
"_. c #F9C7CC",
"`. c #FACAD1",
"'. c #F9CFDE",
"]. c #F6C7D7",
"[. c #FAD5D6",
"{. c #F8D3DC",
"}. c #FBDBD5",
"|. c #FADCE3",
" X c #F6D4E3",
".X c #FBE1E1",
"XX c #FDEBEC",
"oX c #FAE6EA",
"OX c #FEF2EF",
"+X c #FBEDF2",
"@X c #FDF2F4",
"#X c #FDF7F8",
"$X c #FEFEFD",
"%X c #FEF9F7",
/* pixels */
"T T T T T T T T T T T T T Y Y Y Y R R R U U U U U X. . .| | Q Q Q ` ` ( ) ^ ^ W W } } [ [ [ S S S A A A K K J J J L F F F H H G ",
"*.*.*.*.*.*.T T T T T T T T T T T Y Y Y Y R R U U U U U  . .| | | Q ' ` ( ( ) ^ W W } } [ [ [ S S S A A A K K J J J L F F F D H ",
"o.o.o.o.-.-.-.*.*.*.*.*.*.*.T T T T T T T Y Y Y R R U U U U U  . .| Q Q ` ` ( ( ^ ^ W } } [ [ [ Z S S A A A K K K J J L F F F D ",
"@.@.@.@.@.@.@.o.o.o.o.-.-.*.*.*.*.T T T T T T Y Y Y R R R U U U  .| | | Q Q ' ` ( ^ ^ W W } [ [ [ [ S S A A A K K K J J L F F F ",
"#.#.#.#.#.#.#.#.@.@.@.@.:.o.o.-.*.*.*.*.T T T T Y Y Y Y R R U U U I  . .| Q Q ' ' ) ) ^ W W } } [ [ [ S S S A A K K K J J L F F ",
"&.&.&.&.&.&.&.&.&.&.#.#.#.#.@.@.@.@.o.o.o.*.*.T T T T T Y Y R R U U U U  .| | Q Q ` / ( ^ ^ W W } [ [ [ S S S A A K K K J J L F ",
"$.$.$.$.$.$.$.$.$.$.&.&.&.#.#.#.#.#.@.@.o.o.-.*.*.T T T T T Y Y R R U U U  . .| | Q Q ` ) ) ^ W } } [ [ [ S S S A A P K K J J L ",
"$.$.$.$.$.$.$.$.$.$.$.$.&.&.&.&.#.#.#.#.@.@.@.o.o.*.*.T T T T T Y Y R R U U U  . .| Q Q ' ( ) ^ W W } [ [ [ S S S A A K K J J J ",
"%.%.%.%.%.%.%.%.%.%.$.%.%.$.$.$.$.&.&.&.&.#.#.@.@.@.o.*.*.*.T T T Y Y Y R U U U U  .| | Q ` ` ( ^ W W } [ [ [ Z S S A A K K K J ",
". . . . . . . . . >.%.%.%.%.%.$.$.$.$.$.$.&.&.#.#.@.@.o.o.-.*.*.T T T Y Y R U U U  . .| | Q ' ` ( ^ ^ } } [ [ [ Z S S A A K K K ",
"7 7 7 7 7 7 . . . . . . . %.%.%.%.%.%.$.$.$.&.&.#.#.#.@.@.o.o.*.*.T T T Y Y R R U U U  .| | Q ' ` ( ^ ^ W } [ [ [ S S A A A K K ",
"8 8 8 8 8 8 7 7 7 7 7 7 . . . . %.>.%.%.%.$.$.$.$.&.&.#.#.@.@.o.o.*.*.T T T Y Y R U U U  . .| Q ` ` ( ^ ^ W } [ [ Z S S A A A K ",
"8 8 8 8 8 8 8 8 8 8 8 8 7 7 . . . . >.>.%.%.%.$.$.$.$.&.&.#.#.@.o.-.*.*.T T T Y Y R U U U  . .| Q ' ` ( ^ W W } [ [ [ S S A A A ",
"5 5 5 5 5 5 5 5 5 8 8 8 8 8 7 7 7 . . . . . %.%.%.%.$.$.$.&.&.#.#.@.o.-.*.T T T T Y R R U U  . .| Q Q ` ) ^ W W } [ [ Z S S A A ",
"5 5 5 5 5 5 5 5 5 5 5 5 8 8 8 8 8 7 8 7 7 . . >.%.%.%.$.$.$.&.&.#.#.@.o.-.*.*.T T T Y R R U U  . .| Q ' ` ) ^ W W } [ [ Z S S A ",
"6 6 6 5 5 5 5 5 5 5 5 5 5 5 5 5 8 8 8 8 8 8 7 . . >.%.%.%.$.$.$.&.&.#.@.@.o.*.*.T T T Y R R U U  . .| Q Q / ) ^ ^ W } [ [ [ S S ",
"6 6 6 6 6 6 6 6 6 6 5 5 5 5 5 5 5 5 5 8 8 8 8 7 . . . . %.%.%.$.$.$.&.#.#.@.o.-.*.T T T Y Y R U U I  .| Q ' ` ) ^ W W [ [ [ S S ",
"6 6 6 6 : 6 6 6 6 6 6 6 5 6 5 5 5 5 5 5 5 8 8 8 7 . 7 7 >.>.%.%.%.$.$.&.#.#.@.@.-.*.*.T T Y R R U U  . .| Q ' ( ) ^ W } [ [ Z S ",
"< < < < < : : : : : : 6 6 6 6 6 6 6 5 5 5 5 8 8 q.x.C.C.C.N.N.N.N.V.V.B.B.m.k.t.<.-.-.*.T T Y Y R U U  . .| Q ' ` ) ^ W } [ [ [ ",
"< < < < < < < < < < : : : : : 6 6 6 6 5 5 5 w.].#X$X$X$X$X$X$X$X$X$X$X$X$X$X$X%X Xk.<.*.T T T Y R R U U  .| | Q ` ( ) W W } [ [ ",
"< < < < < < < < < < < < < : : : 6 6 6 6 6 Z.@X$X$X XQ.W.W.W.W.W.W.W.W.T.T.T.'.%X$X#X~.-.*.*.T T Y R U U U  .| Q Q ` ( ^ W } [ [ ",
"1 1 1 > , , 3 < < < < < < < < < : : : : Z.$X%XH.5.5 5 5 8 8 8 8 . 7 .   %.%.$.,.B.+X$X!.<.*.T T T Y R U U U  .| Q Q / ) ^ W } [ ",
"1 1 1 1 1 1 1 1 1 > > < < < 3 < < < : e.@X%Xc.6 6 6 5 5 5 8 8 8 8 7 . . %.%.,.y.2.r.+X#Xk.-.*.T T T Y R U U U  .| Q ' ( ) ^ W } ",
"2 2 2 2 2 2 2 2 1 1 1 , , > < < < < 4 `.$XH.6 6 6 6 6 5 5 5 5 8 8 8 7 7 . 3.'.$X#X6.M.$XoX1.-.*.T T Y Y R U U  .| | Q / ) ^ W W ",
"2 2 2 2 2 2 2 2 2 2 2 2 1 1 1 > > < 9.#X$X7.< : : 6 6 6 5 5 5 5 8 8 7 . 7 q.+X$X$XU.,.+X$Xr.o.-.*.T T Y Y R U U  .| Q ' ` ) ^ W ",
"* * * * * * * X X 2 2 2 2 2 2 1 1 1 i.$X{.< < < : : 6 6 9 w.J._.`.Y.y.3.7 3.].$X@Xq.$.U.$XI.#.o.-.*.T T Y Y R U U  .| Q ' ( ^ ^ ",
"$ $ $ * * * * * * * * X X 2 2 2 2 1 v.$X/.< 3 < < < 6 7._.%X$X$X$X$X$X'.q.. 3.l.q.%.$.m.$X~.#.@.o.*.T T T Y R U U I | | Q ' ) ^ ",
"$ $ $ $ $ $ $ $ $ * * * * * X X 2 2 A.$XE.1 1 3 < < 8.+X$X@XQ.z.x.Y.oX$X$Xw.7 . . %.%.n.$X!.#.#.@.-.*.T T Y Y R U U  .| Q Q ` ) ",
"= = = = = = = = $ $ $ $ $ * * * X X A.$XE.2 1 > > 4 _.$X|.0.6 6 6 5 5.].$X|.5.7 . . >.n.$X!.&.#.#.@.o.*.T T Y Y U U U  .| Q ` ( ",
"= = % % % = = = = = = $ $ $ $ * * * A.$XE.2 2 2 1 0.%X@X0.: : 6 6 6 5 4.|.$Xz.7 7 . . n.$X!.$.&.#.#.o.o.*.T T Y R U U  .| Q Q ` ",
"& & & & & & % % % = = = = = $ $ $ * S.$XE.2 2 2 2 G.$XR.< < < : 6 6 6 5 b.$X'.8 8 . . n.$X!.$.&.#.#.@.o.*.T T T Y R U U  .| Q ' ",
"+ + + + + - & & & & & & % = = = $ $ S.$XL.2 X 2 2 `.$Xc.< < < < : : : 6 7.$X@X8 8 7 . n.$X^.$.$.&.#.@.@.-.*.T T Y R U U  .| Q Q ",
"+ + + + + + + + + + o & & & % = = = S.$XL.* * X 2 `.$Xa.1 > < < < : : 6 4.$X#X8 8 8 8 n.$X^.%.%.$.&.#.@.o.*.*.T T Y R U U  .| Q ",
"# # # # # # # + + + + + - & & % = = g.$XL.* * * * K.$XK.1 1 < < < < : : i.$X|.5 5 8 8 n.$X^.%.%.$.$.&.#.@.-.*.T T Y R U U I | | ",
"# # # # # @ # # # # + + + + + & & & g.$XL.$ $ * * u.$XoXq 2 1 < < < < 0 {.$XZ.5 5 8 8 n.$X^.%.%.%.$.&.#.@.o.*.*.T T Y R U U  .| ",
"O O O O O # # # # @ # # # + + + + & g.$XL.= $ $ * e [.$X_.q 1 1 < < 0 H.$XXX7.6 5 5 8 n.$XQ.>.%.%.$.&.&.#.@.o.*.T T Y R U U  .| ",
"O O O O O O O O O # # @ @ # # + + + h.$XL.% = = $ $ u.$X$X.Xv.w q i.[.$X$Xc.6 6 5 5 5 z.$XQ.. >.%.$.$.$.&.#.@.*.T T T Y R U U  .",
"g g g g g g g O O O O # # # # # # + h.$XL.& = = = $ $ u..X$X$X$X$X$X$XXXc.6 6 6 6 5 5 b.$XQ.7 . %.%.$.$.&.#.@.o.*.T T Y R U U  .",
"r r r r r r r r r g O O O O # @ # # s.$X}.o & % = = $ * e p.[.@X#X|.D.w < < : 6 6 5 5 J.$XY.8 7 >.%.$.$.&.#.#.o.*.T T Y Y R U U ",
"t t t t r r r r r r r g O O O # @ @ b $X%X; & & & = = $ $ * * 2 2 1 1 > < < < : 6 6 5 |.$Xx.8 7 . >.%.$.$.&.#.@.-.*.T T Y R U U ",
"t t t t t t t t r r r r g g O O # # h }.$Xh.+ & & = = $ $ * * X 2 2 1 > < < < : 6 6 e.$X+X5.8 7 7 >.%.%.$.&.#.@.o.*.T T Y R R U ",
"y y y y y t t t t t t r r r r g O O # s.%XOXn - & & % = $ $ * * X 2 2 1 > < < < : 7.|.$XJ.5 8 7 7 . %.%.$.&.#.#.@.-.*.T T Y R U ",
"y y y y y y y y y t t t t r r r g O O O P.$XOXs.- & & % = $ $ * * X 2 2 > < < < e.|.$X{.4.5 8 8 7 . . %.%.$.&.#.@.o.*.T T Y R U ",
"k k k k y y y y y j y t t t r r r g O O O P.$X$XXXF.g.f.f.f.f.d.d.p.p.v.v.v.G..X$X$X{.0 5 5 5 8 7 7 7 %.%.$.&.#.#.o.*.T T Y R R ",
"k k k u u u u u y y y y y t t t r r g O O h j.oX$X$X$X$X$X$X$X$X$X$X$X$X$X$X$X$X+XH.0 6 5 5 5 8 8 7 . >.%.$.$.&.#.@.-.*.T T Y R ",
"i i i i i u u u u u y y y y t t r r r g O O # l s.F.P.).).).).).).(.(.(.(./.K.a.w < : 6 6 5 5 5 8 8 7 . %.%.$.&.#.@.o.*.T T Y R ",
"i i i i i i i u u u u u y y y t t t r r g O O # @ # + + & & = $ $ * * X 2 1 1 1 < < : : 6 5 5 5 8 8 7 7 >.%.$.&.#.@.o.*.T T Y R ",
"p p p p i i i i i u u u u y y y t t t r r g O O # # # + + & % = $ $ * X 2 2 1 1 3 < : : 6 6 5 5 8 8 7 7 . %.$.$.&.#.@.*.*.T Y Y ",
"x x p p p p p p i i i u u u y y y t t t r r g O O @ # # + + & = = $ * * 2 2 1 1 3 < < : 6 6 5 5 5 8 8 . . %.%.$.&.#.@.o.*.T T Y ",
"c c c a p x p p p i i i u u k y y y t t t r r O O # @ # + + & % = $ $ * X 2 1 1 1 < < : 6 6 5 5 5 8 8 . . %.$.$.&.#.@.o.*.T T Y ",
"c c c c c c c p p p i i i u k u y y y t t r r g O # # # # + o % = $ $ * * 2 2 1 1 < < : : 6 6 5 5 8 8 7 . %.%.$.$.&.@.o.*.T T Y ",
"v v v s s c c a p x p i i z z u u y y t t t r r O O # @ # + + & % % $ * * X 2 2 1 < < < : : 6 5 5 5 8 7 . . %.$.$.&.#.@.-.*.T T ",
"v v s s s v c c c c x x x z i u k k y y t t r r g O O # # + + - % = $ $ * X 2 2 1 < < < : 6 6 6 5 5 8 7 . . %.%.$.&.#.@.o.*.T T ",
"m d d m v v v v c c c x x z i i u k j j y t t r g O O # # # + & & = = $ * * 2 2 1 > < < : 6 6 6 5 5 8 7 7 . %.%.$.&.#.@.o.*.T T ",
"m m m m m m v v v c c c p x i i i u k y y t t r r g O # + + + + & % = $ * * X 2 2 > < < : : 6 6 5 5 8 8 7 7 %.%.$.&.#.@.o.*.T T ",
"M M M d d m m v v v c c c x x i i u k y y t t r r g O # @ + + + & & = $ $ * X 2 2 1 > < < : : 6 5 5 8 8 7 7 %.%.%.$.&.@.@.*.T T ",
"M M M M M m m m v v v c c x x i i i k j y y t t r r O O # # + + & & = = $ * X 2 2 1 1 < < : : 6 5 5 5 8 8 7 >.%.%.$.&.@.@.*.T T ",
"N N N M M M M m m v v c c c x p i i u k y y t t r r g O # @ # + o & = = $ * * 2 2 1 1 < < : : 6 5 5 5 8 8 7 >.%.%.$.&.#.@.-.T T ",
"N N f N N M M M m m s v c a p p i i u k j y y t t r r O # # # + + & % = $ * * 2 2 1 1 < < : : 6 5 5 5 8 8 7 >.%.%.$.&.#.@.o.*.T ",
"B f B N N N M M m m v v c a a x i i i u u y y t t r g O # # # + + & % = $ * * X 2 1 1 3 < : : 6 5 5 5 8 8 7 >.%.%.$.&.#.@.-.*.T ",
"B B B B N N M M M m v v v s a x p i i u u y y t t r g O # # @ + + & % = $ * * X 2 1 1 3 < : : 6 5 5 5 8 8 7 >.%.%.$.&.#.@.-.*.T ",
"V V B B B N N M M d d s s a a x p i i u u y y t t r g O O # @ + + o % = $ * * X 2 1 1 3 < : : 6 5 5 5 8 8 7 >.%.%.$.&.#.@.-.*.T ",
"C C V B B N N M M m d s s c a x p i i u u y y t t r g O O # # # + o % = $ * * X 2 2 1 3 < : : 6 6 5 5 8 8 7 >.%.%.$.&.#.@.-.*.T ",
"C C V B B N N M M m d v v c a x p i i u u y y t t r g O O # # # + o & = $ $ * X 2 2 1 3 < : : 6 6 5 5 8 8 7 >.%.%.$.&.#.@.-.*.T "
};
