/* XPM */
static char *_1c3670ca82f44a9f8348bc685489b07tcTIsFE9AWMCYOAk[] = {
/* columns rows colors chars-per-pixel */
"64 64 59 1 ",
"  c #FE0000",
". c #F8F8F8",
"X c gray96",
"o c gray95",
"O c gray94",
"+ c gray93",
"@ c #EAEAEA",
"# c #E6E6E6",
"$ c gray89",
"% c #DFDFDF",
"& c gainsboro",
"* c #D8D8D8",
"= c gray83",
"- c #D0D0D0",
"; c gray80",
": c gray78",
"> c #C3C3C3",
", c gray75",
"< c gray73",
"1 c gray71",
"2 c #B1B1B1",
"3 c #ACACAC",
"4 c #A7A7A7",
"5 c #A2A2A2",
"6 c #9D9D9D",
"7 c #989898",
"8 c #939393",
"9 c #8E8E8E",
"0 c #898989",
"q c #848484",
"w c gray50",
"e c gray48",
"r c gray46",
"t c gray44",
"y c gray42",
"u c gray40",
"i c gray38",
"p c gray36",
"a c gray34",
"s c gray32",
"d c gray30",
"f c #484848",
"g c #444444",
"h c #3F3F3F",
"j c gray23",
"k c gray21",
"l c #323232",
"z c gray18",
"x c #2A2A2A",
"c c gray15",
"v c #222222",
"b c #1E1E1E",
"n c #1B1B1B",
"m c #181818",
"M c gray8",
"N c #111111",
"B c #0E0E0E",
"V c #0B0B0B",
"C c #090909",
/* pixels */
"                                                                ",
"                                                                ",
"                                                                ",
"   ..........................................................   ",
"   XXXXXXXXXXXXXXXXXXXXXXXXXXXXXXXXXXXXXXXXXXXXXXXXXXXXXXXXXX   ",
"   oooooooooooooooooooooooooooooooooooooooooooooooooooooooooo   ",
"   OOOOOOOOOOOOOOOOOOOOOOOOOOOOOOOOOOOOOOOOOOOOOOOOOOOOOOOOOO   ",
"   ++++++++++++++++++++++++++++++++++++++++++++++++++++++++++   ",
"   @@@@@@@@@@@@@@@@@@@@@@@@@@@@@@@@@@@@@@@@@@@@@@@@@@@@@@@@@@   ",
"   ##########################################################   ",
"   $$$$$$$$$$$$$$$$$$$$$$$$$$$$$$$$$$$$$$$$$$$$$$$$$$$$$$$$$$   ",
"   %%%%%%%%%%%%%%%%%%%%%%%%%%%%%%%%%%%%%%%%%%%%%%%%%%%%%%%%%%   ",
"   &&&&&&&&&&&&&&&&&&&&&&&&&&&&&&&&&&&&&&&&&&&&&&&&&&&&&&&&&&   ",
"   **********************************************************   ",
"   ==========================================================   ",
"   ----------------------------------------------------------   ",
"   ;;;;;;;;;;;;;;;;;;;;;;;;;;;;;;;;;;;;;;;;;;;;;;;;;;;;;;;;;;   ",
"   ::::::::::::::::::::::::::::::::::::::::::::::::::::::::::   ",
"   >>>>>>>>>>>>>>>>>>>>>>>>>>>>>>>>>>>>>>>>>>>>>>>>>>>>>>>>>>   ",
"   ,,,,,,,,,,,,,,,,,,,,,,,,,,,,,,,,,,,,,,,,,,,,,,,,,,,,,,,,,,   ",
"   <<<<<<<<<<<<<<<<<<<<<<<<<<<<<<<<<<<<<<<<<<<<<<<<<<<<<<<<<<   ",
"   1111111111111111111111111111111111111111111111111111111111   ",
"   2222222222222222222222222222222222222222222222222222222222   ",
"   3333333333333333333333333333333333333333333333333333333333   ",
"   4444444444444444444444444444444444444444444444444444444444   ",
"   5555555555555555555555555555555555555555555555555555555555   ",
"   6666666666666666666666666666666666666666666666666666666666   ",
"   7777777777777777777777777777777777777777777777777777777777   ",
"   8888888888888888888888888888888888888888888888888888888888   ",
"   9999999999999999999999999999999999999999999999999999999999   ",
"   0000000000000000000000000000000000000000000000000000000000   ",
"   qqqqqqqqqqqqqqqqqqqqqqqqqqqqqqqqqqqqqqqqqqqqqqqqqqqqqqqqqq   ",
"   wwwwwwwwwwwwwwwwwwwwwwwwwwwwwwwwwwwwwwwwwwwwwwwwwwwwwwwwww   ",
"   eeeeeeeeeeeeeeeeeeeeeeeeeeeeeeeeeeeeeeeeeeeeeeeeeeeeeeeeee   ",
"   rrrrrrrrrrrrrrrrrrrrrrrrrrrrrrrrrrrrrrrrrrrrrrrrrrrrrrrrrr   ",
"   tttttttttttttttttttttttttttttttttttttttttttttttttttttttttt   ",
"   yyyyyyyyyyyyyyyyyyyyyyyyyyyyyyyyyyyyyyyyyyyyyyyyyyyyyyyyyy   ",
"   uuuuuuuuuuuuuuuuuuuuuuuuuuuuuuuuuuuuuuuuuuuuuuuuuuuuuuuuuu   ",
"   iiiiiiiiiiiiiiiiiiiiiiiiiiiiiiiiiiiiiiiiiiiiiiiiiiiiiiiiii   ",
"   pppppppppppppppppppppppppppppppppppppppppppppppppppppppppp   ",
"   aaaaaaaaaaaaaaaaaaaaaaaaaaaaaaaaaaaaaaaaaaaaaaaaaaaaaaaaaa   ",
"   ssssssssssssssssssssssssssssssssssssssssssssssssssssssssss   ",
"   dddddddddddddddddddddddddddddddddddddddddddddddddddddddddd   ",
"   ffffffffffffffffffffffffffffffffffffffffffffffffffffffffff   ",
"   gggggggggggggggggggggggggggggggggggggggggggggggggggggggggg   ",
"   hhhhhhhhhhhhhhhhhhhhhhhhhhhhhhhhhhhhhhhhhhhhhhhhhhhhhhhhhh   ",
"   jjjjjjjjjjjjjjjjjjjjjjjjjjjjjjjjjjjjjjjjjjjjjjjjjjjjjjjjjj   ",
"   kkkkkkkkkkkkkkkkkkkkkkkkkkkkkkkkkkkkkkkkkkkkkkkkkkkkkkkkkk   ",
"   llllllllllllllllllllllllllllllllllllllllllllllllllllllllll   ",
"   zzzzzzzzzzzzzzzzzzzzzzzzzzzzzzzzzzzzzzzzzzzzzzzzzzzzzzzzzz   ",
"   xxxxxxxxxxxxxxxxxxxxxxxxxxxxxxxxxxxxxxxxxxxxxxxxxxxxxxxxxx   ",
"   cccccccccccccccccccccccccccccccccccccccccccccccccccccccccc   ",
"   vvvvvvvvvvvvvvvvvvvvvvvvvvvvvvvvvvvvvvvvvvvvvvvvvvvvvvvvvv   ",
"   bbbbbbbbbbbbbbbbbbbbbbbbbbbbbbbbbbbbbbbbbbbbbbbbbbbbbbbbbb   ",
"   nnnnnnnnnnnnnnnnnnnnnnnnnnnnnnnnnnnnnnnnnnnnnnnnnnnnnnnnnn   ",
"   mmmmmmmmmmmmmmmmmmmmmmmmmmmmmmmmmmmmmmmmmmmmmmmmmmmmmmmmmm   ",
"   MMMMMMMMMMMMMMMMMMMMMMMMMMMMMMMMMMMMMMMMMMMMMMMMMMMMMMMMMM   ",
"   NNNNNNNNNNNNNNNNNNNNNNNNNNNNNNNNNNNNNNNNNNNNNNNNNNNNNNNNNN   ",
"   BBBBBBBBBBBBBBBBBBBBBBBBBBBBBBBBBBBBBBBBBBBBBBBBBBBBBBBBBB   ",
"   VVVVVVVVVVVVVVVVVVVVVVVVVVVVVVVVVVVVVVVVVVVVVVVVVVVVVVVVVV   ",
"   CCCCCCCCCCCCCCCCCCCCCCCCCCCCCCCCCCCCCCCCCCCCCCCCCCCCCCCCCC   ",
"                                                                ",
"                                                                ",
"                                                                "
};
