/* XPM */
static char *_e36b9bbdb894b42aa950ee2f211a098WjyRJ8zUw6gPcU3y[] = {
/* columns rows colors chars-per-pixel */
"70 70 98 2 ",
"   c gray47",
".  c #797979",
"X  c #7B7B7B",
"o  c #7C7C7C",
"O  c #7E7E7E",
"+  c gray50",
"@  c #818181",
"#  c gray51",
"$  c #848484",
"%  c gray52",
"&  c #868686",
"*  c gray53",
"=  c #898989",
"-  c gray54",
";  c #8B8B8B",
":  c gray55",
">  c #8D8D8D",
",  c #8E8E8E",
"<  c gray56",
"1  c gray49",
"2  c #808080",
"3  c #838383",
"4  c #888888",
"5  c #909090",
"6  c gray57",
"7  c #929292",
"8  c #939393",
"9  c gray58",
"0  c #959595",
"q  c gray59",
"w  c #979797",
"e  c #989898",
"r  c gray60",
"t  c #9A9A9A",
"y  c #9B9B9B",
"u  c gray61",
"i  c #9D9D9D",
"p  c gray62",
"a  c #9F9F9F",
"s  c #A0A0A0",
"d  c gray63",
"f  c #A2A2A2",
"g  c gray64",
"h  c #A4A4A4",
"j  c #A5A5A5",
"k  c gray65",
"l  c #A7A7A7",
"z  c gray66",
"x  c #A9A9A9",
"c  c #AAAAAA",
"v  c gray67",
"b  c #ACACAC",
"n  c gray68",
"m  c #AEAEAE",
"M  c #AFAFAF",
"N  c gray69",
"B  c #B1B1B1",
"V  c #B2B2B2",
"C  c gray70",
"Z  c #B4B4B4",
"A  c gray71",
"S  c #B6B6B6",
"D  c #B7B7B7",
"F  c gray72",
"G  c #B9B9B9",
"H  c gray73",
"J  c #BBBBBB",
"K  c #BCBCBC",
"L  c gray74",
"P  c gray",
"I  c gray75",
"U  c #C0C0C0",
"Y  c #C1C1C1",
"T  c gray76",
"R  c #C3C3C3",
"E  c gray77",
"W  c #C5C5C5",
"Q  c #C6C6C6",
"!  c gray78",
"~  c #C8C8C8",
"^  c gray79",
"/  c #CACACA",
"(  c #CBCBCB",
")  c gray80",
"_  c #CDCDCD",
"`  c #CECECE",
"'  c gray81",
"]  c #D0D0D0",
"[  c gray82",
"{  c #D2D2D2",
"}  c LightGray",
"|  c gray83",
" . c #D5D5D5",
".. c gray84",
"X. c #D7D7D7",
"o. c #D8D8D8",
"O. c gray85",
"+. c #DADADA",
/* pixels */
"  . X o O + @ # $ % & * = - - ; : > > , , , < < < < < < < < < < < < < < < < < < < < < < < < < < , , , > > : ; - - = * & % $ # @ + O o X .   ",
". X 1 O 2 # 3 % * 4 - ; : > , < 5 6 6 7 7 8 8 8 8 8 8 8 8 8 8 8 8 8 8 8 8 8 8 8 8 8 8 8 8 8 8 8 8 7 7 6 6 5 < , > : ; - 4 * % 3 # 2 O 1 X . ",
"X 1 + 2 # $ & 4 - ; > , 5 6 8 8 9 0 q q w w w e e e e e e e e e e e e e e e e e e e e e e e e w w w q q 0 9 8 8 6 5 , > ; - 4 & $ # 2 + 1 X ",
"o + 2 # % * = - > < 5 7 9 0 q e r r t y u u u u u i i i i i i i i i i i i i i i i i i i i u u u u u y t r r e q 0 9 7 5 < > - = * % # 2 + o ",
"O 2 # % * = ; > 5 7 9 q e r y u i p a a s d d d d f f f f f f f f f f f f f f f f f f f f d d d d s a a p i u y r e q 9 7 5 > ; = * % # 2 O ",
"+ # $ * = ; , 5 8 0 w r u i a s f f g h j j k k k k k k k k k k k k k k k k k k k k k k k k k k j j h g f f s a i u r w 0 8 5 , ; = * $ # + ",
"@ 3 & = ; , 6 8 q r y i a d g j k l z x x c v v v v v v v v v v v v v v v v v v v v v v v v v v c x x z l k j g d a i y r q 8 6 , ; = & 3 @ ",
"# % 4 - > 5 8 q r u a d g j l x c v b n m m M M N N N N N N N N N N N N N N N N N N N N N N M M m m n b v c x l j g d a u r q 8 5 > - 4 % # ",
"$ * - > 5 8 q r u a f j l x v n m N B V V C Z Z Z Z Z Z Z Z Z Z Z Z Z Z Z Z Z Z Z Z Z Z Z Z Z Z C V V B N m n v x l j f a u r q 8 5 > - * $ ",
"% 4 ; < 7 0 r u a f j z v n M B V Z A S D D F F G G G G G G G G G G G G G G G G G G G G G G F F D D S A Z V B M n v z j f a u r 0 7 < ; 4 % ",
"& - > 5 9 w y a f j z v m B C Z S F G H J K K L L L L L L L L L L L L L L L L L L L L L L L L K K J H G F S Z C B m v z j f a y w 9 5 > - & ",
"* ; < 7 q r i d j z v m B Z S F H J L P I I U U Y Y Y Y Y Y Y Y Y Y Y Y Y Y Y Y Y Y Y Y Y Y U U I I P L J H F S Z B m v z j d i r q 7 < ; * ",
"= : 5 9 e u a g l v m B Z D G J L I U Y T R E E W W W W W W W W W W W W W W W W W W W W W W E E R T Y U I L J G D Z B m v l g a u e 9 5 : = ",
"- > 6 0 r i d j x n B Z D H K P U T R W W Q ! ~ ~ ~ ~ ~ ~ ~ ~ ~ ~ ~ ~ ~ ~ ~ ~ ~ ~ ~ ~ ~ ~ ~ ~ ! Q W W R T U P K H D Z B n x j d i r 0 6 > - ",
"- , 8 q y a g l v M C S G K I Y R W Q ~ ~ ^ / ( ( ( ( ( ( ( ( ( ( ( ( ( ( ( ( ( ( ( ( ( ( ( ( / ^ ~ ~ Q W R Y I K G S C M v l g a y q 8 , - ",
"; 5 8 e u s j x n B Z F J I Y R W ! ^ / ( ) _ _ ` ` ` ` ` ` ` ` ` ` ` ` ` ` ` ` ` ` ` ` ` ` _ _ ) ( / ^ ! W R Y I J F Z B n x j s u e 8 5 ; ",
": 5 9 r i f k c m V S H L U R W ~ ^ ( ) _ ` ' ' ] ] ] ] ] ] ] ] ] ] ] ] ] ] ] ] ] ] ] ] ] ] ' ' ` _ ) ( ^ ~ W R U L H S V m c k f i r 9 5 : ",
"> 6 0 r p f l v N Z F J I T W ! ^ ( _ ` ' ] [ [ { { { { { { { { { { { { { { { { { { { { { { [ [ ] ' ` _ ( ^ ! W T I J F Z N v l f p r 0 6 > ",
"> 6 q t a g z b B A G L U R Q ^ ( _ ` ] [ { } } | | | | | | | | | | | | | | | | | | | | | | } } { [ ] ` _ ( ^ Q R U L G A B b z g a t q 6 > ",
"> 7 q y a h z n B S H P Y W ~ / ) ` ] [ { } | |  . . . . . . . . . . . . . . . . . . . . . .| | } { [ ] ` ) / ~ W Y P H S B n z h a y q 7 > ",
", 8 w u s j x m V D J I T Q ~ ( _ ' [ { | |  .....X.X.X.X.X.X.X.X.X.X.X.X.X.X.X.X.X.X.X.X..... .| | { [ ' _ ( ~ Q T I J D V m x j s u w 8 , ",
", 8 w u d j c m C D K I R Q ^ ) ` ] { } | ....X.X.o.o.o.o.o.o.o.o.o.o.o.o.o.o.o.o.o.o.o.o.X.X.....| } { ] ` ) ^ Q R I K D C m c j d u w 8 , ",
", 8 w u d j c M Z F K U E ! / _ ' [ } |  ...X.X.o.o.o.o.o.o.o.o.o.o.o.o.o.o.o.o.o.o.o.o.o.o.X.X... .| } [ ' _ / ! E U K F Z M c j d u w 8 , ",
"< 8 e u d k v M Z F L U E ~ ( _ ' [ } | ..X.X.o.O.O.O.O.O.O.O.O.O.O.O.O.O.O.O.O.O.O.O.O.O.O.o.X.X...| } [ ' _ ( ~ E U L F Z M v k d u e 8 < ",
"< 8 e i f k v N Z G L Y W ~ ( ` ] { |  ...X.o.O.O.+.+.+.+.+.+.+.+.+.+.+.+.+.+.+.+.+.+.+.+.O.O.o.X... .| { ] ` ( ~ W Y L G Z N v k f i e 8 < ",
"< 8 e i f k v N Z G L Y W ~ ( ` ] { |  .X.o.o.O.+.+.+.+.+.+.+.+.+.+.+.+.+.+.+.+.+.+.+.+.+.+.O.o.o.X. .| { ] ` ( ~ W Y L G Z N v k f i e 8 < ",
"< 8 e i f k v N Z G L Y W ~ ( ` ] { |  .X.o.o.O.+.+.+.+.+.+.+.+.+.+.+.+.+.+.+.+.+.+.+.+.+.+.O.o.o.X. .| { ] ` ( ~ W Y L G Z N v k f i e 8 < ",
"< 8 e i f k v N Z G L Y W ~ ( ` ] { |  .X.o.o.O.+.+.+.+.+.+.+.+.+.+.+.+.+.+.+.+.+.+.+.+.+.+.O.o.o.X. .| { ] ` ( ~ W Y L G Z N v k f i e 8 < ",
"< 8 e i f k v N Z G L Y W ~ ( ` ] { |  .X.o.o.O.+.+.+.+.+.+.+.+.+.+.+.+.+.+.+.+.+.+.+.+.+.+.O.o.o.X. .| { ] ` ( ~ W Y L G Z N v k f i e 8 < ",
"< 8 e i f k v N Z G L Y W ~ ( ` ] { |  .X.o.o.O.+.+.+.+.+.+.+.+.+.+.+.+.+.+.+.+.+.+.+.+.+.+.O.o.o.X. .| { ] ` ( ~ W Y L G Z N v k f i e 8 < ",
"< 8 e i f k v N Z G L Y W ~ ( ` ] { |  .X.o.o.O.+.+.+.+.+.+.+.+.+.+.+.+.+.+.+.+.+.+.+.+.+.+.O.o.o.X. .| { ] ` ( ~ W Y L G Z N v k f i e 8 < ",
"< 8 e i f k v N Z G L Y W ~ ( ` ] { |  .X.o.o.O.+.+.+.+.+.+.+.+.+.+.+.+.+.+.+.+.+.+.+.+.+.+.O.o.o.X. .| { ] ` ( ~ W Y L G Z N v k f i e 8 < ",
"< 8 e i f k v N Z G L Y W ~ ( ` ] { |  .X.o.o.O.+.+.+.+.+.+.+.+.+.+.+.+.+.+.+.+.+.+.+.+.+.+.O.o.o.X. .| { ] ` ( ~ W Y L G Z N v k f i e 8 < ",
"< 8 e i f k v N Z G L Y W ~ ( ` ] { |  .X.o.o.O.+.+.+.+.+.+.+.+.+.+.+.+.+.+.+.+.+.+.+.+.+.+.O.o.o.X. .| { ] ` ( ~ W Y L G Z N v k f i e 8 < ",
"< 8 e i f k v N Z G L Y W ~ ( ` ] { |  .X.o.o.O.+.+.+.+.+.+.+.+.+.+.+.+.+.+.+.+.+.+.+.+.+.+.O.o.o.X. .| { ] ` ( ~ W Y L G Z N v k f i e 8 < ",
"< 8 e i f k v N Z G L Y W ~ ( ` ] { |  .X.o.o.O.+.+.+.+.+.+.+.+.+.+.+.+.+.+.+.+.+.+.+.+.+.+.O.o.o.X. .| { ] ` ( ~ W Y L G Z N v k f i e 8 < ",
"< 8 e i f k v N Z G L Y W ~ ( ` ] { |  .X.o.o.O.+.+.+.+.+.+.+.+.+.+.+.+.+.+.+.+.+.+.+.+.+.+.O.o.o.X. .| { ] ` ( ~ W Y L G Z N v k f i e 8 < ",
"< 8 e i f k v N Z G L Y W ~ ( ` ] { |  .X.o.o.O.+.+.+.+.+.+.+.+.+.+.+.+.+.+.+.+.+.+.+.+.+.+.O.o.o.X. .| { ] ` ( ~ W Y L G Z N v k f i e 8 < ",
"< 8 e i f k v N Z G L Y W ~ ( ` ] { |  .X.o.o.O.+.+.+.+.+.+.+.+.+.+.+.+.+.+.+.+.+.+.+.+.+.+.O.o.o.X. .| { ] ` ( ~ W Y L G Z N v k f i e 8 < ",
"< 8 e i f k v N Z G L Y W ~ ( ` ] { |  .X.o.o.O.+.+.+.+.+.+.+.+.+.+.+.+.+.+.+.+.+.+.+.+.+.+.O.o.o.X. .| { ] ` ( ~ W Y L G Z N v k f i e 8 < ",
"< 8 e i f k v N Z G L Y W ~ ( ` ] { |  .X.o.o.O.+.+.+.+.+.+.+.+.+.+.+.+.+.+.+.+.+.+.+.+.+.+.O.o.o.X. .| { ] ` ( ~ W Y L G Z N v k f i e 8 < ",
"< 8 e i f k v N Z G L Y W ~ ( ` ] { |  .X.o.o.O.+.+.+.+.+.+.+.+.+.+.+.+.+.+.+.+.+.+.+.+.+.+.O.o.o.X. .| { ] ` ( ~ W Y L G Z N v k f i e 8 < ",
"< 8 e i f k v N Z G L Y W ~ ( ` ] { |  .X.o.o.O.+.+.+.+.+.+.+.+.+.+.+.+.+.+.+.+.+.+.+.+.+.+.O.o.o.X. .| { ] ` ( ~ W Y L G Z N v k f i e 8 < ",
"< 8 e i f k v N Z G L Y W ~ ( ` ] { |  .X.o.o.O.+.+.+.+.+.+.+.+.+.+.+.+.+.+.+.+.+.+.+.+.+.+.O.o.o.X. .| { ] ` ( ~ W Y L G Z N v k f i e 8 < ",
"< 8 e i f k v N Z G L Y W ~ ( ` ] { |  .X.o.o.O.+.+.+.+.+.+.+.+.+.+.+.+.+.+.+.+.+.+.+.+.+.+.O.o.o.X. .| { ] ` ( ~ W Y L G Z N v k f i e 8 < ",
"< 8 e i f k v N Z G L Y W ~ ( ` ] { |  ...X.o.O.O.+.+.+.+.+.+.+.+.+.+.+.+.+.+.+.+.+.+.+.+.O.O.o.X... .| { ] ` ( ~ W Y L G Z N v k f i e 8 < ",
"< 8 e u d k v M Z F L U E ~ ( _ ' [ } | ..X.X.o.O.O.O.O.O.O.O.O.O.O.O.O.O.O.O.O.O.O.O.O.O.O.o.X.X...| } [ ' _ ( ~ E U L F Z M v k d u e 8 < ",
", 8 w u d j c M Z F K U E ! / _ ' [ } |  ...X.X.o.o.o.o.o.o.o.o.o.o.o.o.o.o.o.o.o.o.o.o.o.o.X.X... .| } [ ' _ / ! E U K F Z M c j d u w 8 , ",
", 8 w u d j c m C D K I R Q ^ ) ` ] { } | ....X.X.o.o.o.o.o.o.o.o.o.o.o.o.o.o.o.o.o.o.o.o.X.X.....| } { ] ` ) ^ Q R I K D C m c j d u w 8 , ",
", 8 w u s j x m V D J I T Q ~ ( _ ' [ { | |  .....X.X.X.X.X.X.X.X.X.X.X.X.X.X.X.X.X.X.X.X..... .| | { [ ' _ ( ~ Q T I J D V m x j s u w 8 , ",
"> 7 q y a h z n B S H P Y W ~ / ) ` ] [ { } | |  . . . . . . . . . . . . . . . . . . . . . .| | } { [ ] ` ) / ~ W Y P H S B n z h a y q 7 > ",
"> 6 q t a g z b B A G L U R Q ^ ( _ ` ] [ { } } | | | | | | | | | | | | | | | | | | | | | | } } { [ ] ` _ ( ^ Q R U L G A B b z g a t q 6 > ",
"> 6 0 r p f l v N Z F J I T W ! ^ ( _ ` ' ] [ [ { { { { { { { { { { { { { { { { { { { { { { [ [ ] ' ` _ ( ^ ! W T I J F Z N v l f p r 0 6 > ",
": 5 9 r i f k c m V S H L U R W ~ ^ ( ) _ ` ' ' ] ] ] ] ] ] ] ] ] ] ] ] ] ] ] ] ] ] ] ] ] ] ' ' ` _ ) ( ^ ~ W R U L H S V m c k f i r 9 5 : ",
"; 5 8 e u s j x n B Z F J I Y R W ! ^ / ( ) _ _ ` ` ` ` ` ` ` ` ` ` ` ` ` ` ` ` ` ` ` ` ` ` _ _ ) ( / ^ ! W R Y I J F Z B n x j s u e 8 5 ; ",
"- , 8 q y a g l v M C S G K I Y R W Q ~ ~ ^ / ( ( ( ( ( ( ( ( ( ( ( ( ( ( ( ( ( ( ( ( ( ( ( ( / ^ ~ ~ Q W R Y I K G S C M v l g a y q 8 , - ",
"- > 6 0 r i d j x n B Z D H K P U T R W W Q ! ~ ~ ~ ~ ~ ~ ~ ~ ~ ~ ~ ~ ~ ~ ~ ~ ~ ~ ~ ~ ~ ~ ~ ~ ! Q W W R T U P K H D Z B n x j d i r 0 6 > - ",
"= : 5 9 e u a g l v m B Z D G J L I U Y T R E E W W W W W W W W W W W W W W W W W W W W W W E E R T Y U I L J G D Z B m v l g a u e 9 5 : = ",
"* ; < 7 q r i d j z v m B Z S F H J L P I I U U Y Y Y Y Y Y Y Y Y Y Y Y Y Y Y Y Y Y Y Y Y Y U U I I P L J H F S Z B m v z j d i r q 7 < ; * ",
"& - > 5 9 w y a f j z v m B C Z S F G H J K K L L L L L L L L L L L L L L L L L L L L L L L L K K J H G F S Z C B m v z j f a y w 9 5 > - & ",
"% 4 ; < 7 0 r u a f j z v n M B V Z A S D D F F G G G G G G G G G G G G G G G G G G G G G G F F D D S A Z V B M n v z j f a u r 0 7 < ; 4 % ",
"$ * - > 5 8 q r u a f j l x v n m N B V V C Z Z Z Z Z Z Z Z Z Z Z Z Z Z Z Z Z Z Z Z Z Z Z Z Z Z C V V B N m n v x l j f a u r q 8 5 > - * $ ",
"# % 4 - > 5 8 q r u a d g j l x c v b n m m M M N N N N N N N N N N N N N N N N N N N N N N M M m m n b v c x l j g d a u r q 8 5 > - 4 % # ",
"@ 3 & = ; , 6 8 q r y i a d g j k l z x x c v v v v v v v v v v v v v v v v v v v v v v v v v v c x x z l k j g d a i y r q 8 6 , ; = & 3 @ ",
"+ # $ * = ; , 5 8 0 w r u i a s f f g h j j k k k k k k k k k k k k k k k k k k k k k k k k k k j j h g f f s a i u r w 0 8 5 , ; = * $ # + ",
"O 2 # % * = ; > 5 7 9 q e r y u i p a a s d d d d f f f f f f f f f f f f f f f f f f f f d d d d s a a p i u y r e q 9 7 5 > ; = * % # 2 O ",
"o + 2 # % * = - > < 5 7 9 0 q e r r t y u u u u u i i i i i i i i i i i i i i i i i i i i u u u u u y t r r e q 0 9 7 5 < > - = * % # 2 + o ",
"X 1 + 2 # $ & 4 - ; > , 5 6 8 8 9 0 q q w w w e e e e e e e e e e e e e e e e e e e e e e e e w w w q q 0 9 8 8 6 5 , > ; - 4 & $ # 2 + 1 X ",
". X 1 O 2 # 3 % * 4 - ; : > , < 5 6 6 7 7 8 8 8 8 8 8 8 8 8 8 8 8 8 8 8 8 8 8 8 8 8 8 8 8 8 8 8 8 7 7 6 6 5 < , > : ; - 4 * % 3 # 2 O 1 X . ",
"  . X o O + @ # $ % & * = - - ; : > > , , , < < < < < < < < < < < < < < < < < < < < < < < < < < , , , > > : ; - - = * & % $ # @ + O o X .   "
};
