/* XPM */
static char *d80cfa8c869d428bbc20befdc8c1dd4dllRqh98J1LChxP4K[] = {
/* columns rows colors chars-per-pixel */
"64 64 246 2 ",
"   c #050505",
".  c #090606",
"X  c #0A0907",
"o  c #070609",
"O  c #090709",
"+  c #0A090C",
"@  c #070807",
"#  c #130D0B",
"$  c #1B0C0B",
"%  c #130807",
"&  c #14110E",
"*  c #1B120D",
"=  c #0E0D11",
"-  c #110F13",
";  c #1E0E13",
":  c #141215",
">  c #1A1413",
",  c #1D1915",
"<  c #161419",
"1  c #19161C",
"2  c #1B191D",
"3  c #0E100F",
"4  c #270B0D",
"5  c #380A0C",
"6  c #22140E",
"7  c #2A130D",
"8  c #29180F",
"9  c #34190E",
"0  c #231514",
"q  c #2B1414",
"w  c #221B15",
"e  c #231C1B",
"r  c #2A1B1B",
"t  c #291B15",
"y  c #321D15",
"u  c #371C15",
"i  c #370F11",
"p  c #25211D",
"a  c #2C221C",
"s  c #3B231C",
"d  c #362218",
"f  c #1D1B21",
"g  c #1F1429",
"h  c #221E23",
"j  c #2D1E2B",
"k  c #2B1A2B",
"l  c #242224",
"z  c #2C2623",
"x  c #262329",
"c  c #292629",
"v  c #2C2A2D",
"b  c #2D2926",
"n  c #3B2C23",
"m  c #332D2C",
"M  c #352924",
"N  c #3A332A",
"B  c #2E2C31",
"V  c #342D34",
"C  c #353335",
"Z  c #373539",
"A  c #3B363C",
"S  c #3B3A3A",
"D  c #3B3834",
"F  c #5A1317",
"G  c #431211",
"H  c #42261A",
"J  c #4C2B1C",
"K  c #462619",
"L  c #55291C",
"P  c #4F301E",
"I  c #452B24",
"U  c #482C25",
"Y  c #542D22",
"T  c #483428",
"R  c #543223",
"E  c #583424",
"W  c #57392A",
"Q  c #4B3C33",
"!  c #453D37",
"~  c #543D35",
"^  c #643A2C",
"/  c #673D33",
"(  c #6A3629",
")  c #61281D",
"_  c #49433B",
"`  c #5B453C",
"'  c #564639",
"]  c #5C513D",
"[  c #64422E",
"{  c #684637",
"}  c #794839",
"|  c #6A523D",
" . c #74523B",
".. c #371D49",
"X. c #3F3B42",
"o. c #3B2942",
"O. c #443B45",
"+. c #462559",
"@. c #533758",
"#. c #4E2866",
"$. c #3E4040",
"%. c #4A4548",
"&. c #534C4B",
"*. c #584C43",
"=. c #5A5247",
"-. c #554C55",
";. c #595456",
":. c #4E4A51",
">. c #674A44",
",. c #764E41",
"<. c #655A4D",
"1. c #685649",
"2. c #7D5244",
"3. c #7A5848",
"4. c #685C57",
"5. c #755E54",
"6. c #746454",
"7. c #776A58",
"8. c #7B735B",
"9. c #6B6251",
"0. c #594B62",
"q. c #645C67",
"w. c #664A7A",
"e. c #68556E",
"r. c #6C6369",
"t. c #736D64",
"y. c #7B7563",
"u. c #736C77",
"i. c #7A727E",
"p. c #6E6470",
"a. c #874938",
"s. c #8F4D3E",
"d. c #835444",
"f. c #8B5444",
"g. c #835C4B",
"h. c #895B4A",
"j. c #9D5C4A",
"k. c #935949",
"l. c #985A54",
"z. c #90534E",
"x. c #A35A4A",
"c. c #A7565B",
"v. c #8C624D",
"b. c #85644E",
"n. c #96614F",
"m. c #886757",
"M. c #9C6453",
"N. c #976857",
"B. c #86765E",
"V. c #9B725A",
"C. c #A8634E",
"Z. c #A26452",
"A. c #AB6553",
"S. c #A56956",
"D. c #AB6A55",
"F. c #A46C5A",
"G. c #AB6D5B",
"H. c #AC6359",
"J. c #B36B54",
"K. c #B36E5A",
"L. c #B06752",
"P. c #AC715E",
"I. c #A8715B",
"U. c #B4735C",
"Y. c #BB745C",
"T. c #BC795D",
"R. c #B37357",
"E. c #B1664F",
"W. c #886D65",
"Q. c #887966",
"!. c #957965",
"~. c #94746C",
"^. c #AD7362",
"/. c #AA7866",
"(. c #B37562",
"). c #BB7663",
"_. c #B47A65",
"`. c #BC7B65",
"'. c #BC7D6A",
"]. c #B47A69",
"[. c #A97467",
"{. c #9C5A62",
"}. c #C2775D",
"|. c #C47C63",
" X c #C27D68",
".X c #C07772",
"XX c #8C836D",
"oX c #96846B",
"OX c #978974",
"+X c #948D76",
"@X c #A1836D",
"#X c #BD816C",
"$X c #B98566",
"%X c #A48D75",
"&X c #BB8676",
"*X c #A49379",
"=X c #B1815C",
"-X c #C48166",
";X c #C4836C",
":X c #CB846C",
">X c #CA8A6E",
",X c #C4896E",
"<X c #D1856C",
"1X c #C48571",
"2X c #CA8671",
"3X c #C48A73",
"4X c #CC8B74",
"5X c #CD8D79",
"6X c #C48A7B",
"7X c #D28C74",
"8X c #D28F79",
"9X c #D68A74",
"0X c #CC937B",
"qX c #D49175",
"wX c #D4937B",
"eX c #D9957C",
"rX c #DB997D",
"tX c #D69A7C",
"yX c #7B7381",
"uX c #7A6887",
"iX c #83798A",
"pX c #897797",
"aX c #89818D",
"sX c #8E8596",
"dX c #968D9C",
"fX c #9D9390",
"gX c #A89D87",
"hX c #BD9282",
"jX c #ABA184",
"kX c #B6A889",
"lX c #BBAA95",
"zX c #9D92A1",
"xX c #A79CA9",
"cX c #ACA1AF",
"vX c #ADA2B0",
"bX c #C89484",
"nX c #DC9B83",
"mX c #D89A86",
"MX c #CB8F8D",
"NX c #E19D87",
"BX c #DCA286",
"VX c #C3B496",
"CX c #E3A289",
"ZX c #E9AC99",
"AX c #EABBAD",
"SX c #CFC6A9",
/* pixels */
"o     O + + O o o o X i F F G 4 .   o     O X $ 7 9 K J J J K s 8 # O o o o     O > < < O               O = = + O     * R [ { [ ",
"    o O + + O o o o X q F F 5 $   o o         X # 7 9 u K H u 9 6 X O o   o     O > , , +               + + = + X o . 8 R [ { { ",
"      O + + O o o o O 4 F F 5 %                 . # $ 6 7 7 7 6 # X   o O O     O > e e &             @ & , > + O & 0 d R W / { ",
"    o O + + O o o O o $ G G 5 X o   o o o o       + % # $ $ # % X .   + &   X   O : e p > O           # s T T s n T U P R Y E ^ ",
"  o o O = + O o o O o # i i 4 X o o   o o         O , ! *.n D D =.8.8.Q.6.p . p : & , p , #         X d { 3.,.1.| | | W L J Y Y ",
"  o o O + + + o o O @ # 7 4 $ O O o o O o o         <.+XQ.OXkXkXSXVXjXOX*XkX8.w p _ , b , # .       * T 3.N.m.b.3.1.| R K H u u ",
"  o O O + = + O + 1 e h 0 ; # O O @ O O O o o c N Q.%XjXQ.VX*XkXjXQ.Q.` ! <.Q.oX6.# p ! , > O       t ` v.V.b.3.| | W P H 9 6 $ ",
"o o O O + = + + h A %.%.o.k k g g - + O O O O > p *XkXB.a N kXoXB.1.M 9.N ' =.8.lXoX' D b & X     # U | N.N.g. .[ W E J d 6 # . ",
"o o o O + + + + A ;.p.e.0.+.....o.j w + o o o S B.OXm.' XXoX7.+X<.t ! m <.7.XXoXn ! 9.7.] a > m   I W  .b.3. .[ W E R J y $ X   ",
"o o o O + + + : :.p.iXiXw.#.+.+.@.V a # O : p *X1.6.6.9.Q.Q.Q.6.4.' OX4.7.t.D *.=.N N ' 1.t w X + d W  . .{ ^ E R R J s 6 # X   ",
"o o o O + + O x ;.i.sXiXw.#.#.#.@.O.M + @ + Q.7.%XQ.Q.gX=.' 1.` N n n 6.Q.gX8.&.Q.D t.8.jX*XB.w 6 d R [ E E E E E R H t & O     ",
"o o O O + + + X.p.aXdXpXuXw.w.w.e.O.M & . b OXkXlXkX6.1.Q I ` Q ! M T M ~ <.=.1.T ! _ Q.7.XX%XN t y J P J P Y E E J H t #       ",
"o O O O + + : %.p.aXdXsXpXpXpXpXuX-.c O D 7.Q.@X!.5.~ >.~ Q T I n t > * a Q ` Q n ' s ' Q.y.1.gXoXQ K J J J P R R K d 6 X       ",
"O O O O # # - C -.p.u.yXyXiXsXsXi.;.h 1 W.OXm.y T >.U W U U s u s d U U I U R s T VX6.<.! <.Q.OX<.1.s K J J J Y K y 0 # X       ",
"O O O % q q $ 1 v A O.:.q.q.u.u.q.O.- a *.{ s * 3.b.F.].(.5X[.2.h.F.^.^.G.k.h.{ >.{ 5.lX<.N ! <.*X1.H J J J K K d 6 % .       X ",
"O O O $ i u q # + + = : h v A O.A h X a n [ 6 U n.R.T.`.`.4X;X2X;XeX4X`.`.`.(.F.M.m.W ` ~.n ! n 6.d J K K J H s d > O         % ",
"O O + # i H u $ O O + + + + = : : + o ~ Q >.y /.U.T.T.-X7X8XeXeXeX7XqX:X:X`.`.(.`./.m.>.T Q.N *.m.%X~ s d u d M z 2 +         $ ",
"O O + X 0 a r : O O O + + + + O O O : 1.1.H >.F.U.T.}.|.rX7XnXnXrXqXqXwXwXwX2X;X#X^./.>.5.>.a *.1.M t 8 6 * e c x l : X     . 4 ",
"O O O o : l h : O O O + + O + O O O O *.n T ,.F.U.Y.|.<XwXmXCXZXCXwXnX7XeXwX4X;X1X_.V.m.>.1.n *.5., > * # X > l x l :       X q ",
"O O O O : h e : O O @ O + + O O + O O ~ U u { n.T.T.Y.7XmXnXnXnXnXCXnXnXeX8X4X4X2X^.[.m.1.~ 1.' <.e & X O o + < 2 < O   + : : 0 ",
"O O O o : z z > O O o O O O O O O O O ' s I ^ N.U.T.|.:XnX8XCXNXCXnXnXeX7X2X4X1X1XP.v.W.>.n W.4._ + + o   o o + = +   O V O.:.-.",
"+ O + O 0 s s 0 + O O O O O + O O O O m I u { ^.R.Y.|.|.qXqXrXrXZXnXeXqX4X2X2X;X`.'.I.,.>.s ~.1.4.O   o o     o     O V q.u.i.iX",
"O O + O t I I y + O O O O O + + O O O o 7 s d.R.R.D.-X4XwXnXtXCXqXBXwX0XmX,X0X;X#X_._.'.H U W.' 1.X             @ O h -.aXxXxXxX",
"O + + O 0 I I y + O O + O + + O O O O @ u K U.D.U.I._.V.{ /.0XBX8XBX].v.{  .$X/.&X_._._.2.I ` I T O             @ O B q.dXxXcXcX",
"O O + @ 0 s s t O O O O O O O O + O + < y { K.M.2.E  .2.} M.;X>XtX>XT.j.} d.3.2.g.v.P.G.N.n s F.0 O         o O O O V q.dXxXcXvX",
"O + O O - r r * O O O O @ O + O + + + # { { Z.} n.`.`.1Xf.M.} `.CX;X/ d.f.'.3X'.(.M.P.U.d.` / s.s # .       o o + + Z p.zXxXcXcX",
"O O O + - > : + o O O O @ @ O O + O O O M.2.Z.S.C.a.{ m 4.^ f.'.CX:XN.d.hX4.1.v.s.Z.G.G.f.~ j.K.$ # X       o o + + Z p.dXzXzXdX",
"O O O + - 1 : = O O O o O @ O @ O O O O A.} G.`.I.3X6XMX'.].mX|.9X`.I.&X1X0X3X0X;XF.(.G.A.m.Y.K.* # O     o . O O + B ;.u.yXu.u.",
"O + + + 1 c c l - + O O O O O O O O O + ).M.G.`.D.`.-X;X_.'.:XY.|.K.).'.4XwXnXeX X5X;XZ.Z.&XU.).* # O     O O O   o < A :.:.O.X.",
"O + + + 2 c m c < + O O O O + O O O O + M /.G.`.|.Y.:XnX8XtX-XY.7XK.'.5XCXeX7X7X:X;X`.A.j.&XZ.E.* # X   o O O O   o X : f - + + ",
"O O O O + h l e : + + + + O O O O O O O @ M.G.|.|.eXZXZXBXeXU.:X9XY.U.`.9XnXnXNX7XwX'.U.Z.M.3X/.* # X o   O O o     o o O O O O ",
"O + O O + + : - + O + + + O + + + + + O Q #XS.).:XnXAXZX X`.).AXNXnXG.G.'.9XCXNXnXmX`.G.Z.1X3X# * & X . . O O       o o O o o O ",
"O o + o + + + O O O O O O O O + + + + O o ;Xx.K.:XnXnX:X XJ.Z.}.<XA.j.a.M.Y.:X9X7X2XU.J.Z.).N.# * & + X O + O o o o o O o     o ",
"@ O O o + + + + O + O + + O + + + + + O O l.j.A.|.<X|.Y.wX#X'.A.f.l.n.N.P.'.:X<X|.J.A.L.D.Q # # > : : = = = + + O o o o o o o   ",
"o o O O + + + + O O + + + + + + + + O O 1 T Z.C.J.|.|.4X3X1XbXbX&XbX&X6X6X1X`.<X|.E.A.L.D.& # & > < : - : : = = + O o   o o o   ",
"o o O O + + + + O + O + e z M m b e & O : > j.E.E.J.;X0X&X&XbXmXbXbXbXbX&X].3XP.<XJ.A.J.A.& + # : : : : : < = = + O o o o o o   ",
"o o O O O + O + O + 2 N _ =.<.<.<.*._ D > O k.L.x.|.>X_.'.'.'.H.j.x.l.l.f./ f.,X9XK.K.J.j.+ + + : : : : : : = + O O             ",
"o o o o O + + + + N _ 1.7.Q.oXoXoXQ.7.9.*.m f.L.Y.|.BX$XP.l.z.c.l.l.c.{.].3X5XBX:XU.G.A.f.O . O = : : : : : - + O O     o o     ",
"o O o o O + O + _ <.7.Q.oX%X*X*X%X%XOXXXy.<.[ A.J.|.nX8X`.A..XMXMX6X2X`.'.1X0XrXY.K.K.x.%     O + : < e c v c l : +       o o O ",
"+ O O o O + O _ t.XXoX!.!.oX@X@X!.!.!.!.*X+Xt.f.L.K.|.;X;X-XG.Z.].'.(.4X;X4X4X`.A.J.x.a..       + : l D %.&.&.%.C h + O   + = : ",
"+ O + O O + e 4.XX+X!.m.m.m.m.m.m.m.m.W.+XgXXXn.f.D.R.T.>X>X:XeXeX-XeXnXmXmX;XD.U.C.a.G..     . + : v %.4.r.4.;.%.v < + + : < 1 ",
"+ + + + + + ! t.OXOXm.b.b.b.g.g.g.b.m.B.OXgXb v.(.f.D.U.;X>XnXmXnXnX4XwXmXmX`.G.D.a.(.S.X     @ + : m &.r.r.4.;.%.C , = : < 2 2 ",
"+ + + + + : &.y.oX!.b.g.g.3.3.3.g.b.m.B.~.=.+ h.P.S.s.Z.U.;X5XwXeXwXwXeX;X#XD.j.a.`.(.P.. . O O O + v %.;.;.&.%.S c 2 : < 2 1 < ",
"+ + + + O c =.W.!.m.b.g.g.d.d.g.g.m.W.W.b : O k.S.(.k.d.^.`.U.}.}.|.Y.K.(.F.j.} Z.(.P.N.  . O O X # l m ! D v c l 2 < < < : < : ",
"+ + + + + m =.m.N.v.h.h.h.h.h.h.m.N.~.f l + b n.S.(.^.M.f.k.S.j.s.D.D.F.F.f.} Z.(.^.G.2.3 O + # & & > 1 l 2 1 1 1 : : : - : : : ",
"O O O + + z ` 3.h.n.v.n.n.N.N.N.V.! 2 h 2 # > M.F.(.U.P.f./ } / ^ Y h.} } } S._._.^.S.>.C # & > , , > p m S S C x 1 = + + = : = ",
"O O O + + r ~ ,.h.n.N.N.V.^.~.%.x f h h 1 + w M.S.G.K.`.P.G.k.) L L ) } S.^._.`.'.G.P.n l S > > w , p m &.4.4.&.C , + + + + + = ",
"o o O O O > K { d.k.m.%.Z h f 1 < < 2 h < + 0 M.P.(.).`.;X3X8XnXCX4X2X`.'.`.P.(.G.G.I.X 2 v b * * > e _ r.t.r.&.C 1 + O + + + = ",
"o o o O + > H { &.$.B l - 1 : : < 2 f f : : t M.G.).8X`.(.;X4XwXeX;X2XG.;X2X_.(.G.G.P.X 1 c C > * * e D ;.;.&.S l = + + O + + + ",
"  o O O x ;.%.S B 2 : - 2 - : : < 1 f 2 = 1 y S.(. X2X4X`.`.2X`.2X(.G.G.mX1X;XG.(.(.M.+ < l v S w * w l C C c 1 = + O O O + + = ",
"f ;.:.%.Z C c 2 : : : : < < < 1 1 2 f + + h y P.'.;X:X7X5X;XK.(.M.Z.G. XmX;X1X'.(./.U 1 2 l v v Z S , , < : < - + + + O O + + + ",
"S Z C v : : : < < < : < < 1 1 < 1 2 + + = 2 H (.'.,XwXeX4X5X(.G.(.`.4XnX8X1X^.#X'.h.# : 1 2 l x x S l S h v m l : + O O O + + + ",
"h 1 < : < < 1 1 : l l : < 2 1 < 1 : = + = < T ^.`.'.;XeXnX4X5X8XnXwXnXnX1X].#X#X/.} - - 1 f 2 l h l 2 2 C D C c < + O + O O O + ",
": < < < 1 < = 1 : - + < : 1 < 1 : + + + - 1 U } ;X;X`.wXeXwX5XmX4X4XeX7X;X#X2X#XN.` : : < f 2 2 2 1 B 2 c v %.l - O O O O O O O ",
"< < 1 1 2 < = : : : - - < < 1 + + + + + = h 0 ^ 2X4X;X2XeX4X5X4X4XeXeX4XP.;X_.].N.# : : : 1 2 2 2 < 1 + 2 c V Z + O O O O O O O ",
"1 1 1 2 1 < : - < : : < 1 + = = = + = O + h - t ;X4X2X7XwX7X4X7XrXnX4X`.(.^.1X#Xn.: < < - 2 2 2 2 < < 2 2 l l v Z l O O O o O O ",
"2 2 2 2 1 1 < : < : + = + + + : = - + + - x < : : &X2XwXwXwXeXeXeX7X;X;X`.'.5X=Xr < 1 < : : 2 f 1 < < < 1 1 2 2 x v A + O O O O ",
"2 1 1 2 1 1 < : = = + = = - + = - - + + : h : < 1 : : bXwX8X8XNX7X:X2X`.;X-X$XM.: < < : : - < 1 1 < < < + 1 1 1 1 h x B < O O O ",
"2 2 2 1 1 1 < O = + : - - = = - = + = + : h < : : : < < > 0X4XeX;X4X8X-XY.$XD.2.< < : : < - : 2 2 < 1 < f 2 1 < < 1 f l C X.  O ",
"2 2 f 1 2 1 1 O - : 1 : : - : + - - + + < x 1 : : : < < < < < : > 0 m e - > - 2 < 2 : < : : = - : - : : : = = + 1 1 2 2 l v S v ",
"2 1 f 1 f 2 < + : < < < : : : - = + + - : x 2 < > < 1 < < : : < < < : : < : = 1 < : - < < : : - < = - = - : : + 1 1 1 1 2 f c B ",
"2 f f 1 1 1 1 - < < < - : < < : - + + = < h h v e , 1 : 1 < < : : : : : : - : 1 < < : : : : : : = = - - = : : < 1 1 1 1 2 2 f l ",
"2 2 2 2 1 f 1 : : < : : < 1 1 : - - + = 2 h x : 0 w e r w - # : : < < : : + 1 1 : : : : : : : - : - - - : - + 1 2 2 f 2 1 2 2 2 ",
"1 f 1 1 1 1 1 < + - - : 1 f 2 : : = = - < h x + , , > r e w e w 1 e < 1 > + < < : : : : < : : - : - = - : - 1 1 2 1 f 2 1 1 1 2 "
};
